<svg width="372" height="147" viewBox="0 0 372 147" fill="none" xmlns="http://www.w3.org/2000/svg">
<rect x="14.4531" width="355.547" height="147" rx="10" fill="#566EAA"/>
<path d="M14.9349 135.8L28.9062 119V147H14.9349H0L14.9349 135.8Z" fill="#566EAA"/>
<path d="M29.912 32H34.072C36.392 32 37.848 30.944 37.848 28.864C37.848 27.376 36.936 26.592 35.944 26.304V26.016C36.728 25.728 37.576 25.04 37.576 23.68C37.576 21.776 36.2 20.8 33.96 20.8H29.912V32ZM34.104 22.08C35.256 22.08 36.136 22.496 36.136 23.824C36.136 25.104 35.336 25.616 34.296 25.616H31.352V22.08H34.104ZM34.44 26.864C35.496 26.864 36.392 27.424 36.392 28.736C36.392 30.208 35.464 30.72 34.216 30.72H31.352V26.864H34.44ZM43.1095 23.776C40.6775 23.776 38.8855 25.344 38.8855 27.984C38.8855 30.768 40.6775 32.224 43.1095 32.224C45.5415 32.224 47.3335 30.768 47.3335 27.984C47.3335 25.344 45.5415 23.776 43.1095 23.776ZM43.1095 24.96C44.6295 24.96 45.9575 25.872 45.9575 28.016C45.9575 30.128 44.6295 31.04 43.1095 31.04C41.5895 31.04 40.2615 30.128 40.2615 28.016C40.2615 25.872 41.5895 24.96 43.1095 24.96ZM51.8964 32H55.9444C57.7364 32 58.5684 31.168 58.5684 29.872C58.5684 29.04 58.1844 28.24 56.9524 28V27.776C57.8004 27.632 58.3124 26.784 58.3124 26.08C58.3124 24.864 57.5284 24 55.5764 24H51.8964V32ZM55.9764 28.496C56.7444 28.496 57.1764 28.944 57.1764 29.664C57.1764 30.352 56.7924 30.816 55.8644 30.816H53.2724V28.496H55.9764ZM55.7364 25.184C56.5684 25.184 57.0004 25.584 57.0004 26.24C57.0004 26.848 56.7124 27.36 55.8964 27.36H53.2724V25.184H55.7364ZM61.4896 30.656H61.6816C62.3856 31.792 63.5376 32.224 64.5936 32.224C66.8016 32.224 68.4176 30.768 68.4176 27.984C68.4176 25.312 66.8336 23.776 64.6896 23.776C63.4896 23.776 62.3856 24.208 61.6816 25.44H61.4896L61.4096 24H60.1776V34.88H61.5536V31.84L61.4896 30.656ZM64.3536 31.104C62.8496 31.104 61.5536 30.304 61.5536 28.016C61.5536 25.68 62.8496 24.896 64.3536 24.896C65.9056 24.896 67.0416 25.824 67.0416 28.016C67.0416 30.176 65.9056 31.104 64.3536 31.104ZM77.2114 28.432C77.2434 28.16 77.2754 27.808 77.2754 27.52C77.2754 25.024 75.5154 23.776 73.4514 23.776C70.9394 23.776 69.3074 25.28 69.3074 28C69.3074 30.848 70.9234 32.224 73.4034 32.224C75.3394 32.224 76.8114 31.424 77.1794 29.392H75.8354C75.6754 30.176 75.0514 31.04 73.3714 31.04C71.9314 31.04 70.6674 30.192 70.6514 28.432H77.2114ZM73.4194 24.96C75.1314 24.96 75.9794 26.016 75.9794 27.264V27.328H70.6514C70.7314 25.664 71.9154 24.96 73.4194 24.96ZM86.3588 25.44H86.5188V32H87.8148V24H85.6868L83.3188 30.896H83.1588L80.8068 24H78.6308V32H79.9108V25.44H80.0707L82.3268 32H84.0868L86.3588 25.44ZM91.3904 28.528C90.7664 28.608 90.4304 28.912 90.0944 29.632L88.9904 32H90.5904L91.5984 29.648C91.8384 29.088 92.1904 28.88 92.7504 28.88H95.0224V32H96.3984V24H92.5904C90.5584 24 89.7424 24.928 89.7424 26.24C89.7424 27.312 90.2864 28.144 91.3904 28.32V28.528ZM91.0544 26.432C91.0544 25.648 91.5024 25.184 92.3824 25.184H95.0224V27.744H92.4304C91.4224 27.744 91.0544 27.136 91.0544 26.432ZM105.108 23.776C102.692 23.776 100.964 25.28 100.964 28C100.964 30.848 102.708 32.224 105.156 32.224C107.124 32.224 108.868 31.248 108.868 29.184V29.104H107.524V29.168C107.524 30 106.932 31.04 104.996 31.04C103.604 31.04 102.34 30.048 102.34 28.016C102.34 25.952 103.604 24.96 105.156 24.96C106.548 24.96 107.524 25.664 107.524 26.784V26.832H108.868V26.736C108.868 24.784 107.188 23.776 105.108 23.776ZM117.665 28.432C117.697 28.16 117.729 27.808 117.729 27.52C117.729 25.024 115.969 23.776 113.905 23.776C111.393 23.776 109.761 25.28 109.761 28C109.761 30.848 111.377 32.224 113.857 32.224C115.793 32.224 117.265 31.424 117.633 29.392H116.289C116.129 30.176 115.505 31.04 113.825 31.04C112.385 31.04 111.121 30.192 111.105 28.432H117.665ZM113.873 24.96C115.585 24.96 116.433 26.016 116.433 27.264V27.328H111.105C111.185 25.664 112.369 24.96 113.873 24.96ZM122.764 23.776C120.348 23.776 118.62 25.28 118.62 28C118.62 30.848 120.364 32.224 122.812 32.224C124.78 32.224 126.524 31.248 126.524 29.184V29.104H125.18V29.168C125.18 30 124.588 31.04 122.652 31.04C121.26 31.04 119.996 30.048 119.996 28.016C119.996 25.952 121.26 24.96 122.812 24.96C124.204 24.96 125.18 25.664 125.18 26.784V26.832H126.524V26.736C126.524 24.784 124.844 23.776 122.764 23.776ZM131.561 23.776C129.145 23.776 127.417 25.28 127.417 28C127.417 30.848 129.161 32.224 131.609 32.224C133.577 32.224 135.321 31.248 135.321 29.184V29.104H133.977V29.168C133.977 30 133.385 31.04 131.449 31.04C130.057 31.04 128.793 30.048 128.793 28.016C128.793 25.952 130.057 24.96 131.609 24.96C133.001 24.96 133.977 25.664 133.977 26.784V26.832H135.321V26.736C135.321 24.784 133.641 23.776 131.561 23.776ZM142.07 25.504H142.246V32H143.622V24H141.606L138.23 30.736H138.054V24H136.678V32H138.79L142.07 25.504ZM150.835 25.504H151.011V32H152.387V24H150.371L146.995 30.736H146.819V24H145.443V32H147.555L150.835 25.504ZM159.156 28.528C158.532 28.608 158.196 28.912 157.86 29.632L156.756 32H158.356L159.364 29.648C159.604 29.088 159.956 28.88 160.516 28.88H162.788V32H164.164V24H160.356C158.324 24 157.508 24.928 157.508 26.24C157.508 27.312 158.052 28.144 159.156 28.32V28.528ZM158.82 26.432C158.82 25.648 159.268 25.184 160.148 25.184H162.788V27.744H160.196C159.188 27.744 158.82 27.136 158.82 26.432ZM168.489 24L171.161 31.44C171.321 31.888 171.497 32 171.897 32H172.249L171.097 34.88H172.505L176.553 24H175.097L172.697 30.816H172.297L169.945 24H168.489ZM177.678 32H181.726C183.518 32 184.35 31.168 184.35 29.872C184.35 29.04 183.966 28.24 182.734 28V27.776C183.582 27.632 184.094 26.784 184.094 26.08C184.094 24.864 183.31 24 181.358 24H177.678V32ZM181.758 28.496C182.526 28.496 182.958 28.944 182.958 29.664C182.958 30.352 182.574 30.816 181.646 30.816H179.054V28.496H181.758ZM181.518 25.184C182.35 25.184 182.782 25.584 182.782 26.24C182.782 26.848 182.494 27.36 181.678 27.36H179.054V25.184H181.518ZM191.351 25.504H191.527V32H192.903V24H190.887L187.511 30.736H187.335V24H185.959V32H188.071L191.351 25.504ZM194.149 33.968H195.525V32H201.669V33.968H203.045V30.816H201.925V24H196.325L196.277 25.184L196.133 26.912C195.957 29.088 195.589 30.176 195.173 30.816H194.149V33.968ZM197.381 26.992L197.525 25.184H200.549V30.816H196.517C196.933 29.984 197.237 28.72 197.381 26.992ZM211.711 28.432C211.743 28.16 211.775 27.808 211.775 27.52C211.775 25.024 210.015 23.776 207.951 23.776C205.439 23.776 203.807 25.28 203.807 28C203.807 30.848 205.423 32.224 207.903 32.224C209.839 32.224 211.311 31.424 211.679 29.392H210.335C210.175 30.176 209.551 31.04 207.871 31.04C206.431 31.04 205.167 30.192 205.151 28.432H211.711ZM207.919 24.96C209.631 24.96 210.479 26.016 210.479 27.264V27.328H205.151C205.231 25.664 206.415 24.96 207.919 24.96ZM212.304 32H212.624C214.016 32 214.752 31.12 214.96 28.816L215.296 25.184H218.24V32H219.616V24H214.064L214.016 25.184L213.808 27.872C213.6 30.656 213.12 30.848 212.304 30.848V32ZM226.979 27.104C221.939 27.104 221.139 28.8 221.139 30.016C221.139 31.536 222.323 32.224 223.747 32.224C225.187 32.224 226.371 31.456 226.851 30.48H227.027C227.043 30.928 227.123 31.584 227.283 32H228.691C228.515 31.36 228.355 30.704 228.355 29.12V27.024C228.355 25.12 227.395 23.776 224.739 23.776C222.947 23.776 221.187 24.736 221.187 26.768V26.832H222.563V26.784C222.563 25.76 223.299 24.96 224.787 24.96C226.387 24.96 226.979 25.856 226.979 26.816V27.104ZM223.939 31.072C223.123 31.072 222.531 30.72 222.531 29.952C222.531 29.008 223.459 28.16 226.979 28.096V28.752C226.915 29.856 225.571 31.072 223.939 31.072ZM236.967 23.776C234.551 23.776 232.823 25.28 232.823 28C232.823 30.848 234.567 32.224 237.015 32.224C238.983 32.224 240.727 31.248 240.727 29.184V29.104H239.383V29.168C239.383 30 238.791 31.04 236.855 31.04C235.463 31.04 234.199 30.048 234.199 28.016C234.199 25.952 235.463 24.96 237.015 24.96C238.407 24.96 239.383 25.664 239.383 26.784V26.832H240.727V26.736C240.727 24.784 239.047 23.776 236.967 23.776ZM249.524 28.432C249.556 28.16 249.588 27.808 249.588 27.52C249.588 25.024 247.828 23.776 245.764 23.776C243.252 23.776 241.62 25.28 241.62 28C241.62 30.848 243.236 32.224 245.716 32.224C247.652 32.224 249.124 31.424 249.492 29.392H248.148C247.988 30.176 247.364 31.04 245.684 31.04C244.244 31.04 242.98 30.192 242.964 28.432H249.524ZM245.732 24.96C247.444 24.96 248.292 26.016 248.292 27.264V27.328H242.964C243.044 25.664 244.228 24.96 245.732 24.96ZM251.775 26C251.903 23.248 252.911 22.256 255.247 22.032L256.271 21.936C257.087 21.856 257.551 21.776 258.271 21.664L258.319 20.368C257.599 20.48 257.231 20.576 256.463 20.656L255.311 20.768C251.295 21.152 250.495 23.456 250.495 27.072C250.495 30.528 252.175 32.224 254.799 32.224C257.247 32.224 259.055 30.816 259.055 28.128C259.055 25.632 257.551 24.144 255.231 24.144C253.743 24.144 252.559 24.8 251.983 26H251.775ZM254.783 25.312C256.511 25.312 257.679 26.16 257.679 28.16C257.679 30.176 256.335 31.04 254.799 31.04C253.295 31.04 251.983 30.032 251.983 28.112C251.983 26.032 253.455 25.312 254.783 25.312ZM261.844 28.528C261.22 28.608 260.884 28.912 260.548 29.632L259.444 32H261.044L262.052 29.648C262.292 29.088 262.644 28.88 263.204 28.88H265.476V32H266.852V24H263.044C261.012 24 260.196 24.928 260.196 26.24C260.196 27.312 260.74 28.144 261.844 28.32V28.528ZM261.508 26.432C261.508 25.648 261.956 25.184 262.836 25.184H265.476V27.744H262.884C261.876 27.744 261.508 27.136 261.508 26.432ZM275.561 23.776C273.145 23.776 271.417 25.28 271.417 28C271.417 30.848 273.161 32.224 275.609 32.224C277.577 32.224 279.321 31.248 279.321 29.184V29.104H277.977V29.168C277.977 30 277.385 31.04 275.449 31.04C274.057 31.04 272.793 30.048 272.793 28.016C272.793 25.952 274.057 24.96 275.609 24.96C277.001 24.96 277.977 25.664 277.977 26.784V26.832H279.321V26.736C279.321 24.784 277.641 23.776 275.561 23.776ZM284.438 23.776C282.006 23.776 280.214 25.344 280.214 27.984C280.214 30.768 282.006 32.224 284.438 32.224C286.87 32.224 288.662 30.768 288.662 27.984C288.662 25.344 286.87 23.776 284.438 23.776ZM284.438 24.96C285.958 24.96 287.286 25.872 287.286 28.016C287.286 30.128 285.958 31.04 284.438 31.04C282.918 31.04 281.59 30.128 281.59 28.016C281.59 25.872 282.918 24.96 284.438 24.96ZM33.592 42.776C31.176 42.776 29.448 44.28 29.448 47C29.448 49.848 31.192 51.224 33.64 51.224C35.608 51.224 37.352 50.248 37.352 48.184V48.104H36.008V48.168C36.008 49 35.416 50.04 33.48 50.04C32.088 50.04 30.824 49.048 30.824 47.016C30.824 44.952 32.088 43.96 33.64 43.96C35.032 43.96 36.008 44.664 36.008 45.784V45.832H37.352V45.736C37.352 43.784 35.672 42.776 33.592 42.776ZM37.8044 44.184H40.7484V51H42.1244V44.184H45.0684V43H37.8044V44.184ZM49.7501 42.776C47.3181 42.776 45.5261 44.344 45.5261 46.984C45.5261 49.768 47.3181 51.224 49.7501 51.224C52.1821 51.224 53.9741 49.768 53.9741 46.984C53.9741 44.344 52.1821 42.776 49.7501 42.776ZM49.7501 43.96C51.2701 43.96 52.5981 44.872 52.5981 47.016C52.5981 49.128 51.2701 50.04 49.7501 50.04C48.2301 50.04 46.9021 49.128 46.9021 47.016C46.9021 44.872 48.2301 43.96 49.7501 43.96ZM56.6459 49.656H56.8379C57.5419 50.792 58.6939 51.224 59.7499 51.224C61.9579 51.224 63.5739 49.768 63.5739 46.984C63.5739 44.312 61.9899 42.776 59.8459 42.776C58.6459 42.776 57.5419 43.208 56.8379 44.44H56.6459L56.5659 43H55.3339V53.88H56.7099V50.84L56.6459 49.656ZM59.5099 50.104C58.0059 50.104 56.7099 49.304 56.7099 47.016C56.7099 44.68 58.0059 43.896 59.5099 43.896C61.0619 43.896 62.1979 44.824 62.1979 47.016C62.1979 49.176 61.0619 50.104 59.5099 50.104ZM68.6876 42.776C66.2556 42.776 64.4636 44.344 64.4636 46.984C64.4636 49.768 66.2556 51.224 68.6876 51.224C71.1196 51.224 72.9116 49.768 72.9116 46.984C72.9116 44.344 71.1196 42.776 68.6876 42.776ZM68.6876 43.96C70.2076 43.96 71.5356 44.872 71.5356 47.016C71.5356 49.128 70.2076 50.04 68.6876 50.04C67.1676 50.04 65.8396 49.128 65.8396 47.016C65.8396 44.872 67.1676 43.96 68.6876 43.96ZM75.6474 47.496H79.6794V51H81.0554V43H79.6794V46.312H75.6474V43H74.2714V51H75.6474V47.496ZM84.2568 43H82.8808V51H86.3528C88.3048 51 89.3448 49.928 89.3448 48.44C89.3448 46.84 88.4168 45.88 86.2248 45.88H84.2568V43ZM90.5288 43V51H91.9048V43H90.5288ZM86.3848 47.064C87.3448 47.064 87.9688 47.48 87.9688 48.408C87.9688 49.448 87.3128 49.816 86.3848 49.816H84.2568V47.064H86.3848ZM98.3036 44.184H102.592V51H103.968V43H96.9276V51H98.3036V44.184ZM109.547 42.776C107.115 42.776 105.323 44.344 105.323 46.984C105.323 49.768 107.115 51.224 109.547 51.224C111.979 51.224 113.771 49.768 113.771 46.984C113.771 44.344 111.979 42.776 109.547 42.776ZM109.547 43.96C111.067 43.96 112.395 44.872 112.395 47.016C112.395 49.128 111.067 50.04 109.547 50.04C108.027 50.04 106.699 49.128 106.699 47.016C106.699 44.872 108.027 43.96 109.547 43.96ZM114.304 51H114.624C116.016 51 116.752 50.12 116.96 47.816L117.296 44.184H120.24V51H121.616V43H116.064L116.016 44.184L115.808 46.872C115.6 49.656 115.12 49.848 114.304 49.848V51ZM124.819 47.496H128.851V51H130.227V43H128.851V46.312H124.819V43H123.443V51H124.819V47.496ZM135.813 42.776C133.381 42.776 131.589 44.344 131.589 46.984C131.589 49.768 133.381 51.224 135.813 51.224C138.245 51.224 140.037 49.768 140.037 46.984C140.037 44.344 138.245 42.776 135.813 42.776ZM135.813 43.96C137.333 43.96 138.661 44.872 138.661 47.016C138.661 49.128 137.333 50.04 135.813 50.04C134.293 50.04 132.965 49.128 132.965 47.016C132.965 44.872 134.293 43.96 135.813 43.96ZM145.076 42.776C142.66 42.776 140.932 44.28 140.932 47C140.932 49.848 142.676 51.224 145.124 51.224C147.092 51.224 148.836 50.248 148.836 48.184V48.104H147.492V48.168C147.492 49 146.9 50.04 144.964 50.04C143.572 50.04 142.308 49.048 142.308 47.016C142.308 44.952 143.572 43.96 145.124 43.96C146.516 43.96 147.492 44.664 147.492 45.784V45.832H148.836V45.736C148.836 43.784 147.156 42.776 145.076 42.776ZM149.289 44.184H152.233V51H153.609V44.184H156.553V43H149.289V44.184ZM159.163 43H157.787V51H161.419C163.371 51 164.411 49.928 164.411 48.44C164.411 46.84 163.483 45.88 161.291 45.88H159.163V43ZM161.451 47.064C162.411 47.064 163.035 47.48 163.035 48.408C163.035 49.448 162.379 49.816 161.451 49.816H159.163V47.064H161.451ZM173.255 42.776C171.031 42.776 169.351 44.088 169.079 46.312H167.351V43H165.975V51H167.351V47.496H169.047C169.255 49.944 170.967 51.224 173.255 51.224C175.687 51.224 177.479 49.768 177.479 46.984C177.479 44.344 175.687 42.776 173.255 42.776ZM173.255 43.96C174.775 43.96 176.103 44.872 176.103 47.016C176.103 49.128 174.775 50.04 173.255 50.04C171.735 50.04 170.407 49.128 170.407 47.016C170.407 44.872 171.735 43.96 173.255 43.96ZM179.042 49.064V52.968H179.986L180.434 51.544C180.626 50.952 180.866 50.216 180.866 49.864C180.866 49.368 180.53 49.064 179.874 49.064H179.042ZM188.471 47.56C189.159 47.56 189.495 47.8 189.879 48.488L191.255 51H192.903L191.431 48.472C190.951 47.64 190.599 47.144 189.927 47.048V46.824C190.551 46.728 190.903 46.456 191.383 45.384L192.455 43H190.967L189.927 45.432C189.623 46.136 189.207 46.344 188.615 46.376H187.319V43H185.943V51H187.319V47.56H188.471ZM199.386 46.104C194.346 46.104 193.546 47.8 193.546 49.016C193.546 50.536 194.73 51.224 196.154 51.224C197.594 51.224 198.778 50.456 199.258 49.48H199.434C199.45 49.928 199.53 50.584 199.69 51H201.098C200.922 50.36 200.762 49.704 200.762 48.12V46.024C200.762 44.12 199.802 42.776 197.146 42.776C195.354 42.776 193.594 43.736 193.594 45.768V45.832H194.97V45.784C194.97 44.76 195.706 43.96 197.194 43.96C198.794 43.96 199.386 44.856 199.386 45.816V46.104ZM196.346 50.072C195.53 50.072 194.938 49.72 194.938 48.952C194.938 48.008 195.866 47.16 199.386 47.096V47.752C199.322 48.856 197.978 50.072 196.346 50.072ZM203.802 49.656H203.994C204.698 50.792 205.85 51.224 206.906 51.224C209.114 51.224 210.73 49.768 210.73 46.984C210.73 44.312 209.146 42.776 207.002 42.776C205.802 42.776 204.698 43.208 203.994 44.44H203.802L203.722 43H202.49V53.88H203.866V50.84L203.802 49.656ZM206.666 50.104C205.162 50.104 203.866 49.304 203.866 47.016C203.866 44.68 205.162 43.896 206.666 43.896C208.218 43.896 209.354 44.824 209.354 47.016C209.354 49.176 208.218 50.104 206.666 50.104ZM211.179 44.184H214.123V51H215.499V44.184H218.443V43H211.179V44.184ZM225.07 44.504H225.246V51H226.622V43H224.606L221.23 49.736H221.054V43H219.678V51H221.79L225.07 44.504ZM229.819 47.496H233.851V51H235.227V43H233.851V46.312H229.819V43H228.443V51H229.819V47.496ZM242.589 46.104C237.549 46.104 236.749 47.8 236.749 49.016C236.749 50.536 237.933 51.224 239.357 51.224C240.797 51.224 241.981 50.456 242.461 49.48H242.637C242.653 49.928 242.733 50.584 242.893 51H244.301C244.125 50.36 243.965 49.704 243.965 48.12V46.024C243.965 44.12 243.005 42.776 240.349 42.776C238.557 42.776 236.797 43.736 236.797 45.768V45.832H238.173V45.784C238.173 44.76 238.909 43.96 240.397 43.96C241.997 43.96 242.589 44.856 242.589 45.816V46.104ZM239.549 50.072C238.733 50.072 238.141 49.72 238.141 48.952C238.141 48.008 239.069 47.16 242.589 47.096V47.752C242.525 48.856 241.181 50.072 239.549 50.072ZM252.576 42.776C250.16 42.776 248.432 44.28 248.432 47C248.432 49.848 250.176 51.224 252.624 51.224C254.592 51.224 256.336 50.248 256.336 48.184V48.104H254.992V48.168C254.992 49 254.4 50.04 252.464 50.04C251.072 50.04 249.808 49.048 249.808 47.016C249.808 44.952 251.072 43.96 252.624 43.96C254.016 43.96 254.992 44.664 254.992 45.784V45.832H256.336V45.736C256.336 43.784 254.656 42.776 252.576 42.776ZM256.867 51H257.187C258.579 51 259.315 50.12 259.523 47.816L259.859 44.184H262.803V51H264.179V43H258.627L258.579 44.184L258.371 46.872C258.163 49.656 257.683 49.848 256.867 49.848V51ZM269.766 42.776C267.334 42.776 265.542 44.344 265.542 46.984C265.542 49.768 267.334 51.224 269.766 51.224C272.198 51.224 273.99 49.768 273.99 46.984C273.99 44.344 272.198 42.776 269.766 42.776ZM269.766 43.96C271.286 43.96 272.614 44.872 272.614 47.016C272.614 49.128 271.286 50.04 269.766 50.04C268.246 50.04 266.918 49.128 266.918 47.016C266.918 44.872 268.246 43.96 269.766 43.96ZM278.577 47.56H279.249V51H280.625V47.56H281.297C281.889 47.56 282.225 47.832 282.577 48.488L283.921 51H285.569L284.097 48.472C283.601 47.624 283.329 47.144 282.657 47.048V46.824C283.281 46.728 283.617 46.488 284.049 45.384L284.993 43H283.505L282.593 45.432C282.305 46.184 281.873 46.376 281.297 46.376H280.625V43H279.249V46.376H278.577C278.001 46.376 277.569 46.184 277.281 45.432L276.369 43H274.881L275.825 45.384C276.257 46.488 276.593 46.728 277.217 46.824V47.048C276.545 47.144 276.273 47.624 275.777 48.472L274.305 51H275.953L277.297 48.488C277.649 47.832 277.985 47.56 278.577 47.56ZM292.226 44.504H292.402V51H293.778V43H291.762L288.386 49.736H288.21V43H286.834V51H288.946L292.226 44.504ZM295.008 51H295.328C296.72 51 297.456 50.12 297.664 47.816L298 44.184H300.944V51H302.32V43H296.768L296.72 44.184L296.512 46.872C296.304 49.656 295.824 49.848 295.008 49.848V51ZM309.682 46.104C304.642 46.104 303.842 47.8 303.842 49.016C303.842 50.536 305.026 51.224 306.45 51.224C307.89 51.224 309.074 50.456 309.554 49.48H309.73C309.746 49.928 309.826 50.584 309.986 51H311.394C311.218 50.36 311.058 49.704 311.058 48.12V46.024C311.058 44.12 310.098 42.776 307.442 42.776C305.65 42.776 303.89 43.736 303.89 45.768V45.832H305.266V45.784C305.266 44.76 306.002 43.96 307.49 43.96C309.09 43.96 309.682 44.856 309.682 45.816V46.104ZM306.642 50.072C305.826 50.072 305.234 49.72 305.234 48.952C305.234 48.008 306.162 47.16 309.682 47.096V47.752C309.618 48.856 308.274 50.072 306.642 50.072ZM316.467 42.776C314.051 42.776 312.323 44.28 312.323 47C312.323 49.848 314.067 51.224 316.515 51.224C318.483 51.224 320.227 50.248 320.227 48.184V48.104H318.883V48.168C318.883 49 318.291 50.04 316.355 50.04C314.963 50.04 313.699 49.048 313.699 47.016C313.699 44.952 314.963 43.96 316.515 43.96C317.907 43.96 318.883 44.664 318.883 45.784V45.832H320.227V45.736C320.227 43.784 318.547 42.776 316.467 42.776ZM322.96 43H321.584V51H325.216C327.168 51 328.208 49.928 328.208 48.44C328.208 46.84 327.28 45.88 325.088 45.88H322.96V43ZM325.248 47.064C326.208 47.064 326.832 47.48 326.832 48.408C326.832 49.448 326.176 49.816 325.248 49.816H322.96V47.064H325.248ZM32.44 66.56C33.128 66.56 33.464 66.8 33.848 67.488L35.224 70H36.872L35.4 67.472C34.92 66.64 34.568 66.144 33.896 66.048V65.824C34.52 65.728 34.872 65.456 35.352 64.384L36.424 62H34.936L33.896 64.432C33.592 65.136 33.176 65.344 32.584 65.376H31.288V62H29.912V70H31.288V66.56H32.44ZM43.3543 65.104C38.3143 65.104 37.5143 66.8 37.5143 68.016C37.5143 69.536 38.6983 70.224 40.1223 70.224C41.5623 70.224 42.7463 69.456 43.2263 68.48H43.4023C43.4183 68.928 43.4983 69.584 43.6583 70H45.0663C44.8903 69.36 44.7303 68.704 44.7303 67.12V65.024C44.7303 63.12 43.7703 61.776 41.1143 61.776C39.3223 61.776 37.5623 62.736 37.5623 64.768V64.832H38.9383V64.784C38.9383 63.76 39.6743 62.96 41.1623 62.96C42.7623 62.96 43.3543 63.856 43.3543 64.816V65.104ZM40.3143 69.072C39.4983 69.072 38.9062 68.72 38.9062 67.952C38.9062 67.008 39.8343 66.16 43.3543 66.096V66.752C43.2903 67.856 41.9463 69.072 40.3143 69.072ZM48.9869 66.56C49.6749 66.56 50.0109 66.8 50.3949 67.488L51.7709 70H53.4189L51.9469 67.472C51.4669 66.64 51.1149 66.144 50.4429 66.048V65.824C51.0669 65.728 51.4189 65.456 51.8989 64.384L52.9709 62H51.4829L50.4429 64.432C50.1389 65.136 49.7229 65.344 49.1309 65.376H47.8349V62H46.4589V70H47.8349V66.56H48.9869ZM61.3528 64.88H62.0728C63.4648 64.88 64.1368 65.664 64.1368 66.8C64.1368 68.096 63.4488 68.944 61.7528 68.944C60.0728 68.944 59.1128 67.92 59.1128 66.352V66.192H57.7048V66.432C57.7048 68.864 59.4168 70.224 61.8008 70.224C64.3768 70.224 65.5768 68.656 65.5768 66.784C65.5768 65.856 65.2088 64.704 63.7048 64.32V64.032C64.8408 63.584 65.3368 62.768 65.3368 61.664C65.3368 60.016 64.2328 58.576 61.6568 58.576C59.3048 58.576 57.8648 59.936 57.8648 62.384V62.48H59.2728V62.4C59.2728 60.864 60.0088 59.856 61.6727 59.856C63.0808 59.856 63.8968 60.56 63.8968 61.744C63.8968 62.848 63.3528 63.6 62.0728 63.6H61.3528V64.88ZM67.4745 70H70.6745C74.4505 70 76.4185 67.408 76.4185 64.4C76.4185 61.2 74.4345 58.8 70.6905 58.8H67.4745V70ZM70.6905 60.08C73.4905 60.08 74.9785 61.808 74.9785 64.4C74.9785 66.544 73.7625 68.72 70.6745 68.72H68.9145V60.08H70.6905ZM86.4134 63.504H86.5894V70H87.9654V62H85.9494L82.5734 68.736H82.3974V62H81.0214V70H83.1334L86.4134 63.504ZM93.099 70.224C95.451 70.224 96.491 69.184 96.491 67.776C96.491 66.912 95.979 66.208 94.779 65.984V65.776C95.787 65.616 96.283 64.928 96.283 64.048C96.283 62.88 95.339 61.776 92.955 61.776C91.083 61.776 89.451 62.8 89.451 64.768V64.832H90.795V64.784C90.795 63.856 91.451 62.96 92.939 62.96C94.411 62.96 94.923 63.472 94.923 64.112C94.923 64.8 94.555 65.392 93.195 65.328L92.171 65.28V66.512L93.211 66.464C94.683 66.4 95.099 66.96 95.099 67.68C95.099 68.288 94.859 69.024 93.147 69.024C91.899 69.024 90.827 68.56 90.827 67.168V67.104H89.483V67.168C89.483 69.392 91.211 70.224 93.099 70.224ZM101.703 61.776C99.2713 61.776 97.4793 63.344 97.4793 65.984C97.4793 68.768 99.2713 70.224 101.703 70.224C104.135 70.224 105.927 68.768 105.927 65.984C105.927 63.344 104.135 61.776 101.703 61.776ZM101.703 62.96C103.223 62.96 104.551 63.872 104.551 66.016C104.551 68.128 103.223 69.04 101.703 69.04C100.183 69.04 98.8553 68.128 98.8553 66.016C98.8553 63.872 100.183 62.96 101.703 62.96ZM108.119 64C108.247 61.248 109.255 60.256 111.591 60.032L112.615 59.936C113.431 59.856 113.895 59.776 114.615 59.664L114.663 58.368C113.943 58.48 113.575 58.576 112.807 58.656L111.655 58.768C107.639 59.152 106.839 61.456 106.839 65.072C106.839 68.528 108.519 70.224 111.143 70.224C113.591 70.224 115.399 68.816 115.399 66.128C115.399 63.632 113.895 62.144 111.575 62.144C110.087 62.144 108.903 62.8 108.327 64H108.119ZM111.127 63.312C112.855 63.312 114.023 64.16 114.023 66.16C114.023 68.176 112.679 69.04 111.143 69.04C109.639 69.04 108.327 68.032 108.327 66.112C108.327 64.032 109.799 63.312 111.127 63.312ZM118.068 68.656H118.26C118.964 69.792 120.116 70.224 121.172 70.224C123.38 70.224 124.996 68.768 124.996 65.984C124.996 63.312 123.412 61.776 121.268 61.776C120.068 61.776 118.964 62.208 118.26 63.44H118.068L117.988 62H116.756V72.88H118.132V69.84L118.068 68.656ZM120.932 69.104C119.428 69.104 118.132 68.304 118.132 66.016C118.132 63.68 119.428 62.896 120.932 62.896C122.484 62.896 123.62 63.824 123.62 66.016C123.62 68.176 122.484 69.104 120.932 69.104ZM131.886 65.104C126.846 65.104 126.046 66.8 126.046 68.016C126.046 69.536 127.23 70.224 128.654 70.224C130.094 70.224 131.278 69.456 131.758 68.48H131.934C131.95 68.928 132.03 69.584 132.19 70H133.598C133.422 69.36 133.262 68.704 133.262 67.12V65.024C133.262 63.12 132.302 61.776 129.646 61.776C127.854 61.776 126.094 62.736 126.094 64.768V64.832H127.47V64.784C127.47 63.76 128.206 62.96 129.694 62.96C131.294 62.96 131.886 63.856 131.886 64.816V65.104ZM128.846 69.072C128.03 69.072 127.438 68.72 127.438 67.952C127.438 67.008 128.366 66.16 131.886 66.096V66.752C131.822 67.856 130.478 69.072 128.846 69.072ZM138.702 66.56H139.374V70H140.75V66.56H141.422C142.014 66.56 142.35 66.832 142.702 67.488L144.046 70H145.694L144.222 67.472C143.726 66.624 143.454 66.144 142.782 66.048V65.824C143.406 65.728 143.742 65.488 144.174 64.384L145.118 62H143.63L142.718 64.432C142.43 65.184 141.998 65.376 141.422 65.376H140.75V62H139.374V65.376H138.702C138.126 65.376 137.694 65.184 137.406 64.432L136.494 62H135.006L135.95 64.384C136.382 65.488 136.718 65.728 137.342 65.824V66.048C136.67 66.144 136.398 66.624 135.902 67.472L134.43 70H136.078L137.422 67.488C137.774 66.832 138.11 66.56 138.702 66.56ZM153.915 66.432C153.947 66.16 153.979 65.808 153.979 65.52C153.979 63.024 152.219 61.776 150.155 61.776C147.643 61.776 146.011 63.28 146.011 66C146.011 68.848 147.627 70.224 150.107 70.224C152.043 70.224 153.515 69.424 153.883 67.392H152.539C152.379 68.176 151.755 69.04 150.075 69.04C148.635 69.04 147.371 68.192 147.355 66.432H153.915ZM150.123 62.96C151.835 62.96 152.683 64.016 152.683 65.264V65.328H147.355C147.435 63.664 148.619 62.96 150.123 62.96ZM156.71 66.496H160.742V70H162.118V62H160.742V65.312H156.71V62H155.334V70H156.71V66.496ZM169.335 63.504H169.511V70H170.887V62H168.871L165.495 68.736H165.319V62H163.943V70H166.055L169.335 63.504ZM180.149 66.432C180.181 66.16 180.213 65.808 180.213 65.52C180.213 63.024 178.453 61.776 176.389 61.776C173.877 61.776 172.245 63.28 172.245 66C172.245 68.848 173.861 70.224 176.341 70.224C178.277 70.224 179.749 69.424 180.117 67.392H178.773C178.613 68.176 177.989 69.04 176.309 69.04C174.869 69.04 173.605 68.192 173.589 66.432H180.149ZM176.357 62.96C178.069 62.96 178.917 64.016 178.917 65.264V65.328H173.589C173.669 63.664 174.853 62.96 176.357 62.96ZM181.776 68.064V71.968H182.72L183.168 70.544C183.36 69.952 183.6 69.216 183.6 68.864C183.6 68.368 183.264 68.064 182.608 68.064H181.776ZM191.206 66.56C191.894 66.56 192.23 66.8 192.614 67.488L193.99 70H195.638L194.166 67.472C193.686 66.64 193.334 66.144 192.662 66.048V65.824C193.286 65.728 193.638 65.456 194.118 64.384L195.19 62H193.702L192.662 64.432C192.358 65.136 191.942 65.344 191.35 65.376H190.054V62H188.678V70H190.054V66.56H191.206ZM200.172 61.776C197.74 61.776 195.948 63.344 195.948 65.984C195.948 68.768 197.74 70.224 200.172 70.224C202.604 70.224 204.396 68.768 204.396 65.984C204.396 63.344 202.604 61.776 200.172 61.776ZM200.172 62.96C201.692 62.96 203.02 63.872 203.02 66.016C203.02 68.128 201.692 69.04 200.172 69.04C198.652 69.04 197.324 68.128 197.324 66.016C197.324 63.872 198.652 62.96 200.172 62.96ZM204.851 63.184H207.795V70H209.171V63.184H212.115V62H204.851V63.184ZM216.797 61.776C214.365 61.776 212.573 63.344 212.573 65.984C212.573 68.768 214.365 70.224 216.797 70.224C219.229 70.224 221.021 68.768 221.021 65.984C221.021 63.344 219.229 61.776 216.797 61.776ZM216.797 62.96C218.317 62.96 219.645 63.872 219.645 66.016C219.645 68.128 218.317 69.04 216.797 69.04C215.277 69.04 213.949 68.128 213.949 66.016C213.949 63.872 215.277 62.96 216.797 62.96ZM223.693 68.656H223.885C224.589 69.792 225.741 70.224 226.797 70.224C229.005 70.224 230.621 68.768 230.621 65.984C230.621 63.312 229.037 61.776 226.893 61.776C225.693 61.776 224.589 62.208 223.885 63.44H223.693L223.613 62H222.381V72.88H223.757V69.84L223.693 68.656ZM226.557 69.104C225.053 69.104 223.757 68.304 223.757 66.016C223.757 63.68 225.053 62.896 226.557 62.896C228.109 62.896 229.245 63.824 229.245 66.016C229.245 68.176 228.109 69.104 226.557 69.104ZM235.735 61.776C233.303 61.776 231.511 63.344 231.511 65.984C231.511 68.768 233.303 70.224 235.735 70.224C238.167 70.224 239.959 68.768 239.959 65.984C239.959 63.344 238.167 61.776 235.735 61.776ZM235.735 62.96C237.255 62.96 238.583 63.872 238.583 66.016C238.583 68.128 237.255 69.04 235.735 69.04C234.215 69.04 232.887 68.128 232.887 66.016C232.887 63.872 234.215 62.96 235.735 62.96ZM248.758 66.432C248.79 66.16 248.822 65.808 248.822 65.52C248.822 63.024 247.062 61.776 244.998 61.776C242.486 61.776 240.854 63.28 240.854 66C240.854 68.848 242.47 70.224 244.95 70.224C246.886 70.224 248.358 69.424 248.726 67.392H247.382C247.222 68.176 246.598 69.04 244.918 69.04C243.478 69.04 242.214 68.192 242.198 66.432H248.758ZM244.966 62.96C246.678 62.96 247.526 64.016 247.526 65.264V65.328H242.198C242.278 63.664 243.462 62.96 244.966 62.96ZM261.109 63.44H261.269V70H262.565V62H260.437L258.069 68.896H257.909L255.557 62H253.381V70H254.661V63.44H254.821L257.077 70H258.837L261.109 63.44ZM268.156 61.776C265.724 61.776 263.932 63.344 263.932 65.984C263.932 68.768 265.724 70.224 268.156 70.224C270.588 70.224 272.38 68.768 272.38 65.984C272.38 63.344 270.588 61.776 268.156 61.776ZM268.156 62.96C269.676 62.96 271.004 63.872 271.004 66.016C271.004 68.128 269.676 69.04 268.156 69.04C266.636 69.04 265.308 68.128 265.308 66.016C265.308 63.872 266.636 62.96 268.156 62.96ZM276.968 66.56H277.64V70H279.016V66.56H279.688C280.28 66.56 280.616 66.832 280.968 67.488L282.312 70H283.96L282.488 67.472C281.992 66.624 281.72 66.144 281.048 66.048V65.824C281.672 65.728 282.008 65.488 282.44 64.384L283.384 62H281.896L280.984 64.432C280.696 65.184 280.264 65.376 279.688 65.376H279.016V62H277.64V65.376H276.968C276.392 65.376 275.96 65.184 275.672 64.432L274.76 62H273.272L274.216 64.384C274.648 65.488 274.984 65.728 275.608 65.824V66.048C274.936 66.144 274.664 66.624 274.168 67.472L272.696 70H274.344L275.688 67.488C276.04 66.832 276.376 66.56 276.968 66.56ZM286.601 66.496H290.633V70H292.009V62H290.633V65.312H286.601V62H285.225V70H286.601V66.496ZM297.594 61.776C295.162 61.776 293.37 63.344 293.37 65.984C293.37 68.768 295.162 70.224 297.594 70.224C300.026 70.224 301.818 68.768 301.818 65.984C301.818 63.344 300.026 61.776 297.594 61.776ZM297.594 62.96C299.114 62.96 300.442 63.872 300.442 66.016C300.442 68.128 299.114 69.04 297.594 69.04C296.074 69.04 294.746 68.128 294.746 66.016C294.746 63.872 296.074 62.96 297.594 62.96ZM31.224 87.656H31.416C32.12 88.792 33.272 89.224 34.328 89.224C36.536 89.224 38.152 87.768 38.152 84.984C38.152 82.312 36.568 80.776 34.424 80.776C33.224 80.776 32.12 81.208 31.416 82.44H31.224L31.144 81H29.912V91.88H31.288V88.84L31.224 87.656ZM34.088 88.104C32.584 88.104 31.288 87.304 31.288 85.016C31.288 82.68 32.584 81.896 34.088 81.896C35.64 81.896 36.776 82.824 36.776 85.016C36.776 87.176 35.64 88.104 34.088 88.104ZM45.0418 84.104C40.0018 84.104 39.2018 85.8 39.2018 87.016C39.2018 88.536 40.3858 89.224 41.8098 89.224C43.2498 89.224 44.4338 88.456 44.9138 87.48H45.0898C45.1058 87.928 45.1858 88.584 45.3458 89H46.7538C46.5778 88.36 46.4178 87.704 46.4178 86.12V84.024C46.4178 82.12 45.4578 80.776 42.8018 80.776C41.0098 80.776 39.2498 81.736 39.2498 83.768V83.832H40.6258V83.784C40.6258 82.76 41.3618 81.96 42.8498 81.96C44.4498 81.96 45.0418 82.856 45.0418 83.816V84.104ZM42.0018 88.072C41.1858 88.072 40.5938 87.72 40.5938 86.952C40.5938 86.008 41.5218 85.16 45.0418 85.096V85.752C44.9778 86.856 43.6338 88.072 42.0018 88.072ZM51.8264 80.776C49.4104 80.776 47.6824 82.28 47.6824 85C47.6824 87.848 49.4264 89.224 51.8744 89.224C53.8424 89.224 55.5864 88.248 55.5864 86.184V86.104H54.2424V86.168C54.2424 87 53.6504 88.04 51.7144 88.04C50.3224 88.04 49.0584 87.048 49.0584 85.016C49.0584 82.952 50.3224 81.96 51.8744 81.96C53.2664 81.96 54.2424 82.664 54.2424 83.784V83.832H55.5864V83.736C55.5864 81.784 53.9064 80.776 51.8264 80.776ZM60.6233 80.776C58.2073 80.776 56.4793 82.28 56.4793 85C56.4793 87.848 58.2233 89.224 60.6713 89.224C62.6393 89.224 64.3833 88.248 64.3833 86.184V86.104H63.0393V86.168C63.0393 87 62.4473 88.04 60.5113 88.04C59.1193 88.04 57.8553 87.048 57.8553 85.016C57.8553 82.952 59.1193 81.96 60.6713 81.96C62.0633 81.96 63.0393 82.664 63.0393 83.784V83.832H64.3833V83.736C64.3833 81.784 62.7033 80.776 60.6233 80.776ZM73.4681 82.44H73.6281V89H74.9241V81H72.7961L70.4281 87.896H70.2681L67.9161 81H65.7401V89H67.0201V82.44H67.1801L69.4361 89H71.1961L73.4681 82.44ZM80.5158 80.776C78.0838 80.776 76.2918 82.344 76.2918 84.984C76.2918 87.768 78.0838 89.224 80.5158 89.224C82.9478 89.224 84.7398 87.768 84.7398 84.984C84.7398 82.344 82.9478 80.776 80.5158 80.776ZM80.5158 81.96C82.0358 81.96 83.3638 82.872 83.3638 85.016C83.3638 87.128 82.0358 88.04 80.5158 88.04C78.9958 88.04 77.6678 87.128 77.6678 85.016C77.6678 82.872 78.9958 81.96 80.5158 81.96ZM85.195 82.184H88.139V89H89.515V82.184H92.459V81H85.195V82.184ZM95.0053 87.656H95.1973C95.9013 88.792 97.0533 89.224 98.1093 89.224C100.317 89.224 101.933 87.768 101.933 84.984C101.933 82.312 100.349 80.776 98.2053 80.776C97.0052 80.776 95.9013 81.208 95.1973 82.44H95.0053L94.9253 81H93.6933V91.88H95.0693V88.84L95.0053 87.656ZM97.8693 88.104C96.3653 88.104 95.0693 87.304 95.0693 85.016C95.0693 82.68 96.3653 81.896 97.8693 81.896C99.4213 81.896 100.557 82.824 100.557 85.016C100.557 87.176 99.4213 88.104 97.8693 88.104ZM110.727 85.432C110.759 85.16 110.791 84.808 110.791 84.52C110.791 82.024 109.031 80.776 106.967 80.776C104.455 80.776 102.823 82.28 102.823 85C102.823 87.848 104.439 89.224 106.919 89.224C108.855 89.224 110.327 88.424 110.695 86.392H109.351C109.191 87.176 108.567 88.04 106.887 88.04C105.447 88.04 104.183 87.192 104.167 85.432H110.727ZM106.935 81.96C108.647 81.96 109.495 83.016 109.495 84.264V84.328H104.167C104.247 82.664 105.431 81.96 106.935 81.96ZM111.242 82.184H114.186V89H115.562V82.184H118.506V81H111.242V82.184ZM121.116 81H119.74V89H123.372C125.324 89 126.364 87.928 126.364 86.44C126.364 84.84 125.436 83.88 123.244 83.88H121.116V81ZM123.404 85.064C124.364 85.064 124.988 85.48 124.988 86.408C124.988 87.448 124.332 87.816 123.404 87.816H121.116V85.064H123.404ZM134.811 80.776C132.395 80.776 130.667 82.28 130.667 85C130.667 87.848 132.411 89.224 134.859 89.224C136.827 89.224 138.571 88.248 138.571 86.184V86.104H137.227V86.168C137.227 87 136.635 88.04 134.699 88.04C133.307 88.04 132.043 87.048 132.043 85.016C132.043 82.952 133.307 81.96 134.859 81.96C136.251 81.96 137.227 82.664 137.227 83.784V83.832H138.571V83.736C138.571 81.784 136.891 80.776 134.811 80.776ZM143.688 80.776C141.256 80.776 139.464 82.344 139.464 84.984C139.464 87.768 141.256 89.224 143.688 89.224C146.12 89.224 147.912 87.768 147.912 84.984C147.912 82.344 146.12 80.776 143.688 80.776ZM143.688 81.96C145.208 81.96 146.536 82.872 146.536 85.016C146.536 87.128 145.208 88.04 143.688 88.04C142.168 88.04 140.84 87.128 140.84 85.016C140.84 82.872 142.168 81.96 143.688 81.96ZM152.475 89H156.523C158.315 89 159.147 88.168 159.147 86.872C159.147 86.04 158.763 85.24 157.531 85V84.776C158.379 84.632 158.891 83.784 158.891 83.08C158.891 81.864 158.107 81 156.155 81H152.475V89ZM156.555 85.496C157.323 85.496 157.755 85.944 157.755 86.664C157.755 87.352 157.371 87.816 156.443 87.816H153.851V85.496H156.555ZM156.315 82.184C157.147 82.184 157.579 82.584 157.579 83.24C157.579 83.848 157.291 84.36 156.475 84.36H153.851V82.184H156.315ZM164.28 80.776C161.864 80.776 160.136 82.28 160.136 85C160.136 87.848 161.88 89.224 164.328 89.224C166.296 89.224 168.04 88.248 168.04 86.184V86.104H166.696V86.168C166.696 87 166.104 88.04 164.168 88.04C162.776 88.04 161.512 87.048 161.512 85.016C161.512 82.952 162.776 81.96 164.328 81.96C165.72 81.96 166.696 82.664 166.696 83.784V83.832H168.04V83.736C168.04 81.784 166.36 80.776 164.28 80.776ZM176.836 85.432C176.868 85.16 176.9 84.808 176.9 84.52C176.9 82.024 175.14 80.776 173.076 80.776C170.564 80.776 168.932 82.28 168.932 85C168.932 87.848 170.548 89.224 173.028 89.224C174.964 89.224 176.436 88.424 176.804 86.392H175.46C175.3 87.176 174.676 88.04 172.996 88.04C171.556 88.04 170.292 87.192 170.276 85.432H176.836ZM173.044 81.96C174.756 81.96 175.604 83.016 175.604 84.264V84.328H170.276C170.356 82.664 171.54 81.96 173.044 81.96ZM183.499 89H185.035L181.979 84.888L184.731 81H183.291L181.211 84.056H181.067L179.003 81H177.531L180.267 84.936L177.227 89H178.699L181.051 85.832H181.195L183.499 89ZM193.201 80.776C190.785 80.776 189.057 82.28 189.057 85C189.057 87.848 190.801 89.224 193.249 89.224C195.217 89.224 196.961 88.248 196.961 86.184V86.104H195.617V86.168C195.617 87 195.025 88.04 193.089 88.04C191.697 88.04 190.433 87.048 190.433 85.016C190.433 82.952 191.697 81.96 193.249 81.96C194.641 81.96 195.617 82.664 195.617 83.784V83.832H196.961V83.736C196.961 81.784 195.281 80.776 193.201 80.776ZM197.414 82.184H200.358V89H201.734V82.184H204.678V81H197.414V82.184ZM209.36 80.776C206.928 80.776 205.136 82.344 205.136 84.984C205.136 87.768 206.928 89.224 209.36 89.224C211.792 89.224 213.584 87.768 213.584 84.984C213.584 82.344 211.792 80.776 209.36 80.776ZM209.36 81.96C210.88 81.96 212.208 82.872 212.208 85.016C212.208 87.128 210.88 88.04 209.36 88.04C207.84 88.04 206.512 87.128 206.512 85.016C206.512 82.872 207.84 81.96 209.36 81.96ZM216.255 87.656H216.447C217.151 88.792 218.303 89.224 219.359 89.224C221.567 89.224 223.183 87.768 223.183 84.984C223.183 82.312 221.599 80.776 219.455 80.776C218.255 80.776 217.151 81.208 216.447 82.44H216.255L216.175 81H214.943V91.88H216.319V88.84L216.255 87.656ZM219.119 88.104C217.615 88.104 216.319 87.304 216.319 85.016C216.319 82.68 217.615 81.896 219.119 81.896C220.671 81.896 221.807 82.824 221.807 85.016C221.807 87.176 220.671 88.104 219.119 88.104ZM228.297 80.776C225.865 80.776 224.073 82.344 224.073 84.984C224.073 87.768 225.865 89.224 228.297 89.224C230.729 89.224 232.521 87.768 232.521 84.984C232.521 82.344 230.729 80.776 228.297 80.776ZM228.297 81.96C229.817 81.96 231.145 82.872 231.145 85.016C231.145 87.128 229.817 88.04 228.297 88.04C226.777 88.04 225.449 87.128 225.449 85.016C225.449 82.872 226.777 81.96 228.297 81.96ZM235.257 85.496H239.289V89H240.665V81H239.289V84.312H235.257V81H233.881V89H235.257V85.496ZM244.714 88.024C244.714 87.384 244.282 86.904 243.53 86.904C242.778 86.904 242.346 87.384 242.346 88.04C242.346 88.76 242.778 89.224 243.53 89.224C244.282 89.224 244.714 88.76 244.714 88.024ZM253.344 79.08H255.936V83.112H253.056C251.92 83.112 251.039 82.392 251.039 80.984C251.039 79.528 252.048 79.08 253.344 79.08ZM251.616 83.624V83.912C250.72 84.152 250.352 84.536 250.016 85.656L248.992 89H250.56L251.456 85.816C251.792 84.632 252.32 84.36 253.504 84.36H255.936V89H257.376V77.8H253.488C251.088 77.8 249.6 78.84 249.6 80.872C249.6 82.328 250.368 83.288 251.616 83.624ZM263.772 82.184H268.06V89H269.436V81H262.396V89H263.772V82.184ZM275.016 80.776C272.584 80.776 270.792 82.344 270.792 84.984C270.792 87.768 272.584 89.224 275.016 89.224C277.448 89.224 279.24 87.768 279.24 84.984C279.24 82.344 277.448 80.776 275.016 80.776ZM275.016 81.96C276.536 81.96 277.864 82.872 277.864 85.016C277.864 87.128 276.536 88.04 275.016 88.04C273.496 88.04 272.168 87.128 272.168 85.016C272.168 82.872 273.496 81.96 275.016 81.96ZM279.773 89H280.093C281.485 89 282.221 88.12 282.429 85.816L282.765 82.184H285.709V89H287.085V81H281.533L281.485 82.184L281.277 84.872C281.069 87.656 280.589 87.848 279.773 87.848V89ZM288.208 81L290.88 88.44C291.04 88.888 291.216 89 291.616 89H291.968L290.816 91.88H292.224L296.272 81H294.816L292.416 87.816H292.016L289.664 81H288.208ZM297.204 81V83.832C297.204 85.576 298.004 86.888 300.276 86.888C301.236 86.888 301.988 86.648 302.484 86.392V89H303.86V81H302.484V85.272C301.876 85.576 301.204 85.72 300.452 85.72C299.22 85.72 298.58 85.16 298.58 83.816V81H297.204ZM311.07 82.504H311.246V89H312.622V81H310.606L307.23 87.736H307.054V81H305.678V89H307.79L311.07 82.504ZM313.851 89H314.171C315.563 89 316.299 88.12 316.507 85.816L316.843 82.184H319.787V89H321.163V81H315.611L315.563 82.184L315.355 84.872C315.147 87.656 314.667 87.848 313.851 87.848V89ZM328.526 84.104C323.486 84.104 322.686 85.8 322.686 87.016C322.686 88.536 323.87 89.224 325.294 89.224C326.734 89.224 327.918 88.456 328.398 87.48H328.574C328.59 87.928 328.67 88.584 328.83 89H330.238C330.062 88.36 329.902 87.704 329.902 86.12V84.024C329.902 82.12 328.942 80.776 326.286 80.776C324.494 80.776 322.734 81.736 322.734 83.768V83.832H324.11V83.784C324.11 82.76 324.846 81.96 326.334 81.96C327.934 81.96 328.526 82.856 328.526 83.816V84.104ZM325.486 88.072C324.67 88.072 324.078 87.72 324.078 86.952C324.078 86.008 325.006 85.16 328.526 85.096V85.752C328.462 86.856 327.118 88.072 325.486 88.072ZM33.672 99.776C31.24 99.776 29.448 101.344 29.448 103.984C29.448 106.768 31.24 108.224 33.672 108.224C36.104 108.224 37.896 106.768 37.896 103.984C37.896 101.344 36.104 99.776 33.672 99.776ZM33.672 100.96C35.192 100.96 36.52 101.872 36.52 104.016C36.52 106.128 35.192 107.04 33.672 107.04C32.152 107.04 30.824 106.128 30.824 104.016C30.824 101.872 32.152 100.96 33.672 100.96ZM38.3513 101.184H41.2953V108H42.6713V101.184H45.6153V100H38.3513V101.184ZM46.8495 108H50.8975C52.6895 108 53.5215 107.168 53.5215 105.872C53.5215 105.04 53.1375 104.24 51.9055 104V103.776C52.7535 103.632 53.2655 102.784 53.2655 102.08C53.2655 100.864 52.4815 100 50.5295 100H46.8495V108ZM50.9295 104.496C51.6975 104.496 52.1295 104.944 52.1295 105.664C52.1295 106.352 51.7455 106.816 50.8175 106.816H48.2255V104.496H50.9295ZM50.6895 101.184C51.5215 101.184 51.9535 101.584 51.9535 102.24C51.9535 102.848 51.6655 103.36 50.8495 103.36H48.2255V101.184H50.6895ZM62.4145 104.432C62.4465 104.16 62.4785 103.808 62.4785 103.52C62.4785 101.024 60.7185 99.776 58.6545 99.776C56.1425 99.776 54.5105 101.28 54.5105 104C54.5105 106.848 56.1265 108.224 58.6065 108.224C60.5425 108.224 62.0145 107.424 62.3825 105.392H61.0385C60.8785 106.176 60.2545 107.04 58.5745 107.04C57.1345 107.04 55.8705 106.192 55.8545 104.432H62.4145ZM58.6225 100.96C60.3345 100.96 61.1825 102.016 61.1825 103.264V103.328H55.8545C55.9345 101.664 57.1185 100.96 58.6225 100.96ZM62.9294 101.184H65.8734V108H67.2494V101.184H70.1934V100H62.9294V101.184ZM74.6308 108H78.6788C80.4708 108 81.3028 107.168 81.3028 105.872C81.3028 105.04 80.9188 104.24 79.6868 104V103.776C80.5348 103.632 81.0468 102.784 81.0468 102.08C81.0468 100.864 80.2628 100 78.3108 100H74.6308V108ZM78.7108 104.496C79.4788 104.496 79.9108 104.944 79.9108 105.664C79.9108 106.352 79.5268 106.816 78.5988 106.816H76.0068V104.496H78.7108ZM78.4708 101.184C79.3028 101.184 79.7348 101.584 79.7348 102.24C79.7348 102.848 79.4468 103.36 78.6308 103.36H76.0068V101.184H78.4708ZM84.288 104.496H88.32V108H89.696V100H88.32V103.312H84.288V100H82.912V108H84.288V104.496ZM90.8174 100L93.4894 107.44C93.6494 107.888 93.8254 108 94.2254 108H94.5774L93.4254 110.88H94.8334L98.8814 100H97.4254L95.0254 106.816H94.6254L92.2734 100H90.8174ZM99.4138 101.184H102.358V108H103.734V101.184H106.678V100H99.4138V101.184ZM109.224 106.656H109.416C110.12 107.792 111.272 108.224 112.328 108.224C114.536 108.224 116.152 106.768 116.152 103.984C116.152 101.312 114.568 99.776 112.424 99.776C111.224 99.776 110.12 100.208 109.416 101.44H109.224L109.144 100H107.912V110.88H109.288V107.84L109.224 106.656ZM112.088 107.104C110.584 107.104 109.288 106.304 109.288 104.016C109.288 101.68 110.584 100.896 112.088 100.896C113.64 100.896 114.776 101.824 114.776 104.016C114.776 106.176 113.64 107.104 112.088 107.104ZM122.898 101.504H123.074V108H124.45V100H122.434L119.058 106.736H118.882V100H117.506V108H119.618L122.898 101.504ZM133.155 99.776C130.739 99.776 129.011 101.28 129.011 104C129.011 106.848 130.755 108.224 133.203 108.224C135.171 108.224 136.915 107.248 136.915 105.184V105.104H135.571V105.168C135.571 106 134.979 107.04 133.043 107.04C131.651 107.04 130.387 106.048 130.387 104.016C130.387 101.952 131.651 100.96 133.203 100.96C134.595 100.96 135.571 101.664 135.571 102.784V102.832H136.915V102.736C136.915 100.784 135.235 99.776 133.155 99.776ZM145.711 104.432C145.743 104.16 145.775 103.808 145.775 103.52C145.775 101.024 144.015 99.776 141.951 99.776C139.439 99.776 137.807 101.28 137.807 104C137.807 106.848 139.423 108.224 141.903 108.224C143.839 108.224 145.311 107.424 145.679 105.392H144.335C144.175 106.176 143.551 107.04 141.871 107.04C140.431 107.04 139.167 106.192 139.151 104.432H145.711ZM141.919 100.96C143.631 100.96 144.479 102.016 144.479 103.264V103.328H139.151C139.231 101.664 140.415 100.96 141.919 100.96ZM147.963 102C148.091 99.248 149.099 98.256 151.435 98.032L152.459 97.936C153.275 97.856 153.739 97.776 154.459 97.664L154.507 96.368C153.787 96.48 153.419 96.576 152.651 96.656L151.499 96.768C147.483 97.152 146.683 99.456 146.683 103.072C146.683 106.528 148.363 108.224 150.987 108.224C153.435 108.224 155.243 106.816 155.243 104.128C155.243 101.632 153.739 100.144 151.419 100.144C149.931 100.144 148.747 100.8 148.171 102H147.963ZM150.971 101.312C152.699 101.312 153.867 102.16 153.867 104.16C153.867 106.176 152.523 107.04 150.987 107.04C149.483 107.04 148.171 106.032 148.171 104.112C148.171 102.032 149.643 101.312 150.971 101.312ZM158.031 104.528C157.407 104.608 157.071 104.912 156.735 105.632L155.631 108H157.231L158.239 105.648C158.479 105.088 158.831 104.88 159.391 104.88H161.663V108H163.039V100H159.231C157.199 100 156.383 100.928 156.383 102.24C156.383 103.312 156.927 104.144 158.031 104.32V104.528ZM157.695 102.432C157.695 101.648 158.143 101.184 159.023 101.184H161.663V103.744H159.071C158.063 103.744 157.695 103.136 157.695 102.432ZM165.073 106.064V109.968H166.017L166.465 108.544C166.657 107.952 166.897 107.216 166.897 106.864C166.897 106.368 166.561 106.064 165.905 106.064H165.073ZM171.783 100V102.832C171.783 104.576 172.583 105.888 174.855 105.888C175.815 105.888 176.567 105.648 177.063 105.392V108H178.439V100H177.063V104.272C176.455 104.576 175.783 104.72 175.031 104.72C173.799 104.72 173.159 104.16 173.159 102.816V100H171.783ZM179.664 101.184H182.608V108H183.984V101.184H186.928V100H179.664V101.184ZM191.61 99.776C189.178 99.776 187.386 101.344 187.386 103.984C187.386 106.768 189.178 108.224 191.61 108.224C194.042 108.224 195.834 106.768 195.834 103.984C195.834 101.344 194.042 99.776 191.61 99.776ZM191.61 100.96C193.13 100.96 194.458 101.872 194.458 104.016C194.458 106.128 193.13 107.04 191.61 107.04C190.09 107.04 188.762 106.128 188.762 104.016C188.762 101.872 190.09 100.96 191.61 100.96ZM199.82 109.968H201.196V108H207.34V109.968H208.716V106.816H207.596V100H201.996L201.948 101.184L201.804 102.912C201.628 105.088 201.26 106.176 200.844 106.816H199.82V109.968ZM203.052 102.992L203.196 101.184H206.22V106.816H202.188C202.604 105.984 202.908 104.72 203.052 102.992ZM217.383 104.432C217.415 104.16 217.447 103.808 217.447 103.52C217.447 101.024 215.687 99.776 213.623 99.776C211.111 99.776 209.479 101.28 209.479 104C209.479 106.848 211.095 108.224 213.575 108.224C215.511 108.224 216.983 107.424 217.351 105.392H216.007C215.847 106.176 215.223 107.04 213.543 107.04C212.103 107.04 210.839 106.192 210.823 104.432H217.383ZM213.591 100.96C215.303 100.96 216.151 102.016 216.151 103.264V103.328H210.823C210.903 101.664 212.087 100.96 213.591 100.96ZM224.195 101.504H224.371V108H225.747V100H223.731L220.355 106.736H220.179V100H218.803V108H220.915L224.195 101.504ZM222.259 99.424C223.875 99.424 224.963 98.528 224.963 96.96H223.747C223.747 97.696 223.315 98.336 222.259 98.336C221.171 98.336 220.755 97.696 220.755 96.96H219.539C219.539 98.528 220.627 99.424 222.259 99.424ZM231.248 99.776C228.832 99.776 227.104 101.28 227.104 104C227.104 106.848 228.848 108.224 231.296 108.224C233.264 108.224 235.008 107.248 235.008 105.184V105.104H233.664V105.168C233.664 106 233.072 107.04 231.136 107.04C229.744 107.04 228.48 106.048 228.48 104.016C228.48 101.952 229.744 100.96 231.296 100.96C232.688 100.96 233.664 101.664 233.664 102.784V102.832H235.008V102.736C235.008 100.784 233.328 99.776 231.248 99.776ZM235.461 101.184H238.405V108H239.781V101.184H242.725V100H235.461V101.184ZM243.959 108H248.007C249.799 108 250.631 107.168 250.631 105.872C250.631 105.04 250.247 104.24 249.015 104V103.776C249.863 103.632 250.375 102.784 250.375 102.08C250.375 100.864 249.591 100 247.639 100H243.959V108ZM248.039 104.496C248.807 104.496 249.239 104.944 249.239 105.664C249.239 106.352 248.855 106.816 247.927 106.816H245.335V104.496H248.039ZM247.799 101.184C248.631 101.184 249.063 101.584 249.063 102.24C249.063 102.848 248.775 103.36 247.959 103.36H245.335V101.184H247.799ZM257.632 101.504H257.808V108H259.184V100H257.168L253.792 106.736H253.616V100H252.24V108H254.352L257.632 101.504ZM260.414 101.184H263.358V108H264.734V101.184H267.678V100H260.414V101.184ZM276.04 104.432C276.072 104.16 276.104 103.808 276.104 103.52C276.104 101.024 274.344 99.776 272.28 99.776C269.768 99.776 268.136 101.28 268.136 104C268.136 106.848 269.752 108.224 272.232 108.224C274.168 108.224 275.64 107.424 276.008 105.392H274.664C274.504 106.176 273.88 107.04 272.2 107.04C270.76 107.04 269.496 106.192 269.48 104.432H276.04ZM272.248 100.96C273.96 100.96 274.808 102.016 274.808 103.264V103.328H269.48C269.56 101.664 270.744 100.96 272.248 100.96ZM276.633 108H276.953C278.345 108 279.081 107.12 279.289 104.816L279.625 101.184H282.569V108H283.945V100H278.393L278.345 101.184L278.137 103.872C277.929 106.656 277.449 106.848 276.633 106.848V108ZM287.147 100H285.771V108H289.403C291.355 108 292.395 106.928 292.395 105.44C292.395 103.84 291.467 102.88 289.275 102.88H287.147V100ZM289.435 104.064C290.395 104.064 291.019 104.48 291.019 105.408C291.019 106.448 290.363 106.816 289.435 106.816H287.147V104.064H289.435ZM295.335 104.496H299.367V108H300.743V100H299.367V103.312H295.335V100H293.959V108H295.335V104.496ZM306.328 99.776C303.896 99.776 302.104 101.344 302.104 103.984C302.104 106.768 303.896 108.224 306.328 108.224C308.76 108.224 310.552 106.768 310.552 103.984C310.552 101.344 308.76 99.776 306.328 99.776ZM306.328 100.96C307.848 100.96 309.176 101.872 309.176 104.016C309.176 106.128 307.848 107.04 306.328 107.04C304.808 107.04 303.48 106.128 303.48 104.016C303.48 101.872 304.808 100.96 306.328 100.96ZM320.843 108H322.379L319.323 103.888L322.075 100H320.635L318.555 103.056H318.411L316.347 100H314.875L317.611 103.936L314.571 108H316.043L318.395 104.832H318.539L320.843 108ZM326.938 99.776C324.506 99.776 322.714 101.344 322.714 103.984C322.714 106.768 324.506 108.224 326.938 108.224C329.37 108.224 331.162 106.768 331.162 103.984C331.162 101.344 329.37 99.776 326.938 99.776ZM326.938 100.96C328.458 100.96 329.786 101.872 329.786 104.016C329.786 106.128 328.458 107.04 326.938 107.04C325.418 107.04 324.09 106.128 324.09 104.016C324.09 101.872 325.418 100.96 326.938 100.96ZM332.329 100V102.832C332.329 104.576 333.129 105.888 335.401 105.888C336.361 105.888 337.113 105.648 337.609 105.392V108H338.985V100H337.609V104.272C337.001 104.576 336.329 104.72 335.577 104.72C334.345 104.72 333.705 104.16 333.705 102.816V100H332.329ZM340.099 100L342.771 107.44C342.931 107.888 343.107 108 343.507 108H343.859L342.707 110.88H344.115L348.163 100H346.707L344.307 106.816H343.907L341.555 100H340.099ZM29.336 128.968H30.712V127H36.856V128.968H38.232V125.816H37.112V119H31.512L31.464 120.184L31.32 121.912C31.144 124.088 30.776 125.176 30.36 125.816H29.336V128.968ZM32.568 121.992L32.712 120.184H35.736V125.816H31.704C32.12 124.984 32.424 123.72 32.568 121.992ZM46.8989 123.432C46.9309 123.16 46.9629 122.808 46.9629 122.52C46.9629 120.024 45.2029 118.776 43.1389 118.776C40.6269 118.776 38.9949 120.28 38.9949 123C38.9949 125.848 40.6109 127.224 43.0909 127.224C45.0269 127.224 46.4989 126.424 46.8669 124.392H45.5229C45.3629 125.176 44.7389 126.04 43.0589 126.04C41.6189 126.04 40.3549 125.192 40.3389 123.432H46.8989ZM43.1069 119.96C44.8189 119.96 45.6669 121.016 45.6669 122.264V122.328H40.3389C40.4189 120.664 41.6029 119.96 43.1069 119.96ZM47.4919 127H47.8119C49.2039 127 49.9399 126.12 50.1479 123.816L50.4839 120.184H53.4279V127H54.8039V119H49.2519L49.2039 120.184L48.9959 122.872C48.7879 125.656 48.3079 125.848 47.4919 125.848V127ZM62.1668 122.104C57.1268 122.104 56.3268 123.8 56.3268 125.016C56.3268 126.536 57.5108 127.224 58.9348 127.224C60.3748 127.224 61.5588 126.456 62.0388 125.48H62.2148C62.2308 125.928 62.3108 126.584 62.4708 127H63.8788C63.7028 126.36 63.5428 125.704 63.5428 124.12V122.024C63.5428 120.12 62.5828 118.776 59.9268 118.776C58.1348 118.776 56.3748 119.736 56.3748 121.768V121.832H57.7508V121.784C57.7508 120.76 58.4868 119.96 59.9748 119.96C61.5748 119.96 62.1668 120.856 62.1668 121.816V122.104ZM59.1268 126.072C58.3108 126.072 57.7188 125.72 57.7188 124.952C57.7188 124.008 58.6468 123.16 62.1668 123.096V123.752C62.1028 124.856 60.7588 126.072 59.1268 126.072ZM64.5231 120.184H67.4671V127H68.8431V120.184H71.7871V119H64.5231V120.184ZM74.3974 119H73.0214V127H76.6534C78.6054 127 79.6454 125.928 79.6454 124.44C79.6454 122.84 78.7174 121.88 76.5254 121.88H74.3974V119ZM76.6854 123.064C77.6454 123.064 78.2694 123.48 78.2694 124.408C78.2694 125.448 77.6134 125.816 76.6854 125.816H74.3974V123.064H76.6854ZM83.4329 126.024C83.4329 125.384 83.0009 124.904 82.2489 124.904C81.4969 124.904 81.0649 125.384 81.0649 126.04C81.0649 126.76 81.4969 127.224 82.2489 127.224C83.0009 127.224 83.4329 126.76 83.4329 126.024Z" fill="white"/>
</svg>
