<svg width="370" height="120" viewBox="0 0 370 120" fill="none" xmlns="http://www.w3.org/2000/svg">
<rect x="14.4531" width="355.547" height="120" rx="10" fill="#D77A80"/>
<path d="M14.9349 108.5L28.9062 97.1428V120H14.9349H0L14.9349 108.5Z" fill="#D77A80"/>
<path d="M38.208 32.336V32.048C39.056 31.648 39.392 31.088 39.568 30.304L40.384 26.8H38.912L38.16 30.256C37.904 31.424 37.312 31.6 36.272 31.6H34.352V26.8H32.912V38H34.352V32.88H36.272C37.472 32.88 37.952 33.216 38.368 34.464L39.536 38H41.12L39.648 33.856C39.312 32.912 38.896 32.528 38.208 32.336ZM47.6668 33.104C42.6268 33.104 41.8268 34.8 41.8268 36.016C41.8268 37.536 43.0108 38.224 44.4348 38.224C45.8748 38.224 47.0588 37.456 47.5388 36.48H47.7148C47.7308 36.928 47.8108 37.584 47.9708 38H49.3788C49.2028 37.36 49.0428 36.704 49.0428 35.12V33.024C49.0428 31.12 48.0828 29.776 45.4268 29.776C43.6348 29.776 41.8748 30.736 41.8748 32.768V32.832H43.2508V32.784C43.2508 31.76 43.9868 30.96 45.4748 30.96C47.0748 30.96 47.6668 31.856 47.6668 32.816V33.104ZM44.6268 37.072C43.8108 37.072 43.2188 36.72 43.2188 35.952C43.2188 35.008 44.1468 34.16 47.6668 34.096V34.752C47.6028 35.856 46.2588 37.072 44.6268 37.072ZM53.2994 34.56C53.9874 34.56 54.3234 34.8 54.7074 35.488L56.0834 38H57.7314L56.2594 35.472C55.7794 34.64 55.4274 34.144 54.7554 34.048V33.824C55.3794 33.728 55.7314 33.456 56.2114 32.384L57.2834 30H55.7954L54.7554 32.432C54.4514 33.136 54.0354 33.344 53.4434 33.376H52.1474V30H50.7714V38H52.1474V34.56H53.2994ZM65.5052 38.224C67.8573 38.224 68.8973 37.184 68.8973 35.776C68.8973 34.912 68.3853 34.208 67.1853 33.984V33.776C68.1933 33.616 68.6893 32.928 68.6893 32.048C68.6893 30.88 67.7453 29.776 65.3613 29.776C63.4893 29.776 61.8573 30.8 61.8573 32.768V32.832H63.2013V32.784C63.2013 31.856 63.8573 30.96 65.3453 30.96C66.8173 30.96 67.3293 31.472 67.3293 32.112C67.3293 32.8 66.9613 33.392 65.6013 33.328L64.5773 33.28V34.512L65.6173 34.464C67.0893 34.4 67.5053 34.96 67.5053 35.68C67.5053 36.288 67.2653 37.024 65.5533 37.024C64.3053 37.024 63.2333 36.56 63.2333 35.168V35.104H61.8893V35.168C61.8893 37.392 63.6173 38.224 65.5052 38.224ZM77.7895 34.432C77.8215 34.16 77.8535 33.808 77.8535 33.52C77.8535 31.024 76.0935 29.776 74.0295 29.776C71.5175 29.776 69.8855 31.28 69.8855 34C69.8855 36.848 71.5015 38.224 73.9815 38.224C75.9175 38.224 77.3895 37.424 77.7575 35.392H76.4135C76.2535 36.176 75.6295 37.04 73.9495 37.04C72.5095 37.04 71.2455 36.192 71.2295 34.432H77.7895ZM73.9975 30.96C75.7095 30.96 76.5575 32.016 76.5575 33.264V33.328H71.2295C71.3095 31.664 72.4935 30.96 73.9975 30.96ZM80.5209 36.656H80.7129C81.4169 37.792 82.5689 38.224 83.6249 38.224C85.8329 38.224 87.4489 36.768 87.4489 33.984C87.4489 31.312 85.8649 29.776 83.7209 29.776C82.5209 29.776 81.4169 30.208 80.7129 31.44H80.5209L80.4409 30H79.2089V40.88H80.5849V37.84L80.5209 36.656ZM83.3849 37.104C81.8809 37.104 80.5849 36.304 80.5849 34.016C80.5849 31.68 81.8809 30.896 83.3849 30.896C84.9369 30.896 86.0729 31.824 86.0729 34.016C86.0729 36.176 84.9369 37.104 83.3849 37.104ZM91.3306 34.56C92.0186 34.56 92.3546 34.8 92.7386 35.488L94.1146 38H95.7626L94.2906 35.472C93.8106 34.64 93.4586 34.144 92.7866 34.048V33.824C93.4106 33.728 93.7626 33.456 94.2426 32.384L95.3146 30H93.8266L92.7866 32.432C92.4826 33.136 92.0666 33.344 91.4746 33.376H90.1786V30H88.8026V38H90.1786V34.56H91.3306ZM102.245 33.104C97.2049 33.104 96.4049 34.8 96.4049 36.016C96.4049 37.536 97.5889 38.224 99.0129 38.224C100.453 38.224 101.637 37.456 102.117 36.48H102.293C102.309 36.928 102.389 37.584 102.549 38H103.957C103.781 37.36 103.621 36.704 103.621 35.12V33.024C103.621 31.12 102.661 29.776 100.005 29.776C98.2129 29.776 96.4529 30.736 96.4529 32.768V32.832H97.8289V32.784C97.8289 31.76 98.5649 30.96 100.053 30.96C101.653 30.96 102.245 31.856 102.245 32.816V33.104ZM99.2049 37.072C98.3889 37.072 97.7969 36.72 97.7969 35.952C97.7969 35.008 98.7249 34.16 102.245 34.096V34.752C102.181 35.856 100.837 37.072 99.2049 37.072ZM104.758 38H105.078C106.47 38 107.206 37.12 107.414 34.816L107.75 31.184H110.694V38H112.07V30H106.518L106.47 31.184L106.262 33.872C106.054 36.656 105.574 36.848 104.758 36.848V38ZM117.656 29.776C115.224 29.776 113.432 31.344 113.432 33.984C113.432 36.768 115.224 38.224 117.656 38.224C120.088 38.224 121.88 36.768 121.88 33.984C121.88 31.344 120.088 29.776 117.656 29.776ZM117.656 30.96C119.176 30.96 120.504 31.872 120.504 34.016C120.504 36.128 119.176 37.04 117.656 37.04C116.136 37.04 114.808 36.128 114.808 34.016C114.808 31.872 116.136 30.96 117.656 30.96ZM134.171 31.44H134.331V38H135.627V30H133.499L131.131 36.896H130.971L128.619 30H126.443V38H127.723V31.44H127.883L130.139 38H131.899L134.171 31.44ZM144.899 34.432C144.931 34.16 144.963 33.808 144.963 33.52C144.963 31.024 143.203 29.776 141.139 29.776C138.627 29.776 136.995 31.28 136.995 34C136.995 36.848 138.611 38.224 141.091 38.224C143.027 38.224 144.499 37.424 144.867 35.392H143.523C143.363 36.176 142.739 37.04 141.059 37.04C139.619 37.04 138.355 36.192 138.339 34.432H144.899ZM141.107 30.96C142.819 30.96 143.667 32.016 143.667 33.264V33.328H138.339C138.419 31.664 139.603 30.96 141.107 30.96ZM147.694 34.496H151.726V38H153.102V30H151.726V33.312H147.694V30H146.318V38H147.694V34.496ZM156.672 34.528C156.048 34.608 155.712 34.912 155.376 35.632L154.272 38H155.872L156.88 35.648C157.12 35.088 157.472 34.88 158.032 34.88H160.304V38H161.68V30H157.872C155.84 30 155.024 30.928 155.024 32.24C155.024 33.312 155.568 34.144 156.672 34.32V34.528ZM156.336 32.432C156.336 31.648 156.784 31.184 157.664 31.184H160.304V33.744H157.712C156.704 33.744 156.336 33.136 156.336 32.432ZM168.085 31.184H172.373V38H173.749V30H166.709V38H168.085V31.184ZM179.328 29.776C176.896 29.776 175.104 31.344 175.104 33.984C175.104 36.768 176.896 38.224 179.328 38.224C181.76 38.224 183.552 36.768 183.552 33.984C183.552 31.344 181.76 29.776 179.328 29.776ZM179.328 30.96C180.848 30.96 182.176 31.872 182.176 34.016C182.176 36.128 180.848 37.04 179.328 37.04C177.808 37.04 176.48 36.128 176.48 34.016C176.48 31.872 177.808 30.96 179.328 30.96ZM187.44 34.56C188.128 34.56 188.464 34.8 188.848 35.488L190.224 38H191.872L190.4 35.472C189.92 34.64 189.568 34.144 188.896 34.048V33.824C189.52 33.728 189.872 33.456 190.352 32.384L191.424 30H189.936L188.896 32.432C188.592 33.136 188.176 33.344 187.584 33.376H186.288V30H184.912V38H186.288V34.56H187.44ZM198.354 33.104C193.314 33.104 192.514 34.8 192.514 36.016C192.514 37.536 193.698 38.224 195.122 38.224C196.562 38.224 197.746 37.456 198.226 36.48H198.402C198.418 36.928 198.498 37.584 198.658 38H200.066C199.89 37.36 199.73 36.704 199.73 35.12V33.024C199.73 31.12 198.77 29.776 196.114 29.776C194.322 29.776 192.562 30.736 192.562 32.768V32.832H193.938V32.784C193.938 31.76 194.674 30.96 196.162 30.96C197.762 30.96 198.354 31.856 198.354 32.816V33.104ZM195.314 37.072C194.498 37.072 193.906 36.72 193.906 35.952C193.906 35.008 194.834 34.16 198.354 34.096V34.752C198.29 35.856 196.946 37.072 195.314 37.072ZM204.771 38.224C207.123 38.224 208.163 37.184 208.163 35.776C208.163 34.912 207.651 34.208 206.451 33.984V33.776C207.459 33.616 207.955 32.928 207.955 32.048C207.955 30.88 207.011 29.776 204.627 29.776C202.755 29.776 201.123 30.8 201.123 32.768V32.832H202.467V32.784C202.467 31.856 203.123 30.96 204.611 30.96C206.083 30.96 206.595 31.472 206.595 32.112C206.595 32.8 206.227 33.392 204.867 33.328L203.843 33.28V34.512L204.883 34.464C206.355 34.4 206.771 34.96 206.771 35.68C206.771 36.288 206.531 37.024 204.819 37.024C203.571 37.024 202.499 36.56 202.499 35.168V35.104H201.155V35.168C201.155 37.392 202.883 38.224 204.771 38.224ZM215.307 33.104C210.267 33.104 209.467 34.8 209.467 36.016C209.467 37.536 210.651 38.224 212.075 38.224C213.515 38.224 214.699 37.456 215.179 36.48H215.355C215.371 36.928 215.451 37.584 215.611 38H217.019C216.843 37.36 216.683 36.704 216.683 35.12V33.024C216.683 31.12 215.723 29.776 213.067 29.776C211.275 29.776 209.515 30.736 209.515 32.768V32.832H210.891V32.784C210.891 31.76 211.627 30.96 213.115 30.96C214.715 30.96 215.307 31.856 215.307 32.816V33.104ZM212.267 37.072C211.451 37.072 210.859 36.72 210.859 35.952C210.859 35.008 211.787 34.16 215.307 34.096V34.752C215.243 35.856 213.899 37.072 212.267 37.072ZM217.82 38H218.14C219.532 38 220.268 37.12 220.476 34.816L220.812 31.184H223.756V38H225.132V30H219.58L219.532 31.184L219.324 33.872C219.116 36.656 218.636 36.848 217.82 36.848V38ZM232.351 31.504H232.527V38H233.903V30H231.887L228.511 36.736H228.335V30H226.959V38H229.071L232.351 31.504ZM237.949 37.024C237.949 36.384 237.517 35.904 236.765 35.904C236.013 35.904 235.581 36.384 235.581 37.04C235.581 37.76 236.013 38.224 236.765 38.224C237.517 38.224 237.949 37.76 237.949 37.024ZM252.978 36.72H251.506V26.8H244.882L244.85 28.08L244.578 32.064C244.434 34.192 244.066 35.888 243.378 36.72H242.146V40.352H243.586V38H251.538V40.352H252.978V36.72ZM245.938 32.176L246.226 28.08H250.066V36.72H244.898C245.522 35.68 245.81 33.952 245.938 32.176ZM258.078 29.776C255.646 29.776 253.854 31.344 253.854 33.984C253.854 36.768 255.646 38.224 258.078 38.224C260.51 38.224 262.302 36.768 262.302 33.984C262.302 31.344 260.51 29.776 258.078 29.776ZM258.078 30.96C259.598 30.96 260.926 31.872 260.926 34.016C260.926 36.128 259.598 37.04 258.078 37.04C256.558 37.04 255.23 36.128 255.23 34.016C255.23 31.872 256.558 30.96 258.078 30.96ZM270.289 29.776C268.129 29.776 266.401 31.024 266.401 32.784V32.832H267.745V32.784C267.745 31.808 268.641 30.96 270.225 30.96C271.697 30.96 272.833 31.76 272.929 33.408H269.457V34.512H272.945C272.881 36.208 271.761 37.04 270.177 37.04C268.337 37.04 267.745 35.936 267.745 35.168V35.104H266.401V35.168C266.401 37.088 268.145 38.224 270.145 38.224C272.689 38.224 274.305 36.848 274.305 34C274.305 31.28 272.673 29.776 270.289 29.776ZM274.758 31.184H277.702V38H279.078V31.184H282.022V30H274.758V31.184ZM286.703 29.776C284.271 29.776 282.479 31.344 282.479 33.984C282.479 36.768 284.271 38.224 286.703 38.224C289.135 38.224 290.927 36.768 290.927 33.984C290.927 31.344 289.135 29.776 286.703 29.776ZM286.703 30.96C288.223 30.96 289.551 31.872 289.551 34.016C289.551 36.128 288.223 37.04 286.703 37.04C285.183 37.04 283.855 36.128 283.855 34.016C283.855 31.872 285.183 30.96 286.703 30.96ZM298.031 30H292.287V38H293.663V31.184H298.031V30ZM302.703 29.776C300.271 29.776 298.479 31.344 298.479 33.984C298.479 36.768 300.271 38.224 302.703 38.224C305.135 38.224 306.927 36.768 306.927 33.984C306.927 31.344 305.135 29.776 302.703 29.776ZM302.703 30.96C304.223 30.96 305.551 31.872 305.551 34.016C305.551 36.128 304.223 37.04 302.703 37.04C301.183 37.04 299.855 36.128 299.855 34.016C299.855 31.872 301.183 30.96 302.703 30.96ZM313.234 34.528C312.61 34.608 312.274 34.912 311.938 35.632L310.834 38H312.434L313.442 35.648C313.682 35.088 314.034 34.88 314.594 34.88H316.866V38H318.242V30H314.434C312.402 30 311.586 30.928 311.586 32.24C311.586 33.312 312.13 34.144 313.234 34.32V34.528ZM312.898 32.432C312.898 31.648 313.346 31.184 314.226 31.184H316.866V33.744H314.274C313.266 33.744 312.898 33.136 312.898 32.432ZM34.288 50.184H38.576V57H39.952V49H32.912V57H34.288V50.184ZM45.5314 48.776C43.0994 48.776 41.3074 50.344 41.3074 52.984C41.3074 55.768 43.0994 57.224 45.5314 57.224C47.9634 57.224 49.7554 55.768 49.7554 52.984C49.7554 50.344 47.9634 48.776 45.5314 48.776ZM45.5314 49.96C47.0514 49.96 48.3794 50.872 48.3794 53.016C48.3794 55.128 47.0514 56.04 45.5314 56.04C44.0114 56.04 42.6834 55.128 42.6834 53.016C42.6834 50.872 44.0114 49.96 45.5314 49.96ZM50.9231 49V51.832C50.9231 53.576 51.7231 54.888 53.9951 54.888C54.9551 54.888 55.7071 54.648 56.2031 54.392V57H57.5791V49H56.2031V53.272C55.5951 53.576 54.9231 53.72 54.1711 53.72C52.9391 53.72 52.2991 53.16 52.2991 51.816V49H50.9231ZM66.8364 53.432C66.8684 53.16 66.9004 52.808 66.9004 52.52C66.9004 50.024 65.1404 48.776 63.0764 48.776C60.5644 48.776 58.9324 50.28 58.9324 53C58.9324 55.848 60.5484 57.224 63.0284 57.224C64.9644 57.224 66.4364 56.424 66.8044 54.392H65.4604C65.3004 55.176 64.6764 56.04 62.9964 56.04C61.5564 56.04 60.2924 55.192 60.2764 53.432H66.8364ZM63.0444 49.96C64.7564 49.96 65.6044 51.016 65.6044 52.264V52.328H60.2764C60.3564 50.664 61.5404 49.96 63.0444 49.96ZM75.9838 50.44H76.1438V57H77.4398V49H75.3118L72.9438 55.896H72.7838L70.4318 49H68.2558V57H69.5358V50.44H69.6957L71.9518 57H73.7118L75.9838 50.44ZM78.5674 49L81.2394 56.44C81.3994 56.888 81.5754 57 81.9754 57H82.3274L81.1754 59.88H82.5834L86.6314 49H85.1754L82.7754 55.816H82.3754L80.0234 49H78.5674ZM87.4838 53.112H91.8678V51.832H87.4838V53.112ZM92.82 50.184H95.764V57H97.14V50.184H100.084V49H92.82V50.184ZM104.766 48.776C102.334 48.776 100.542 50.344 100.542 52.984C100.542 55.768 102.334 57.224 104.766 57.224C107.198 57.224 108.99 55.768 108.99 52.984C108.99 50.344 107.198 48.776 104.766 48.776ZM104.766 49.96C106.286 49.96 107.614 50.872 107.614 53.016C107.614 55.128 106.286 56.04 104.766 56.04C103.246 56.04 101.918 55.128 101.918 53.016C101.918 50.872 103.246 49.96 104.766 49.96ZM112.977 58.968H114.353V57H120.497V58.968H121.873V55.816H120.753V49H115.153L115.105 50.184L114.961 51.912C114.785 54.088 114.417 55.176 114.001 55.816H112.977V58.968ZM116.209 51.992L116.353 50.184H119.377V55.816H115.345C115.761 54.984 116.065 53.72 116.209 51.992ZM122.239 49L124.911 56.44C125.071 56.888 125.247 57 125.647 57H125.999L124.847 59.88H126.255L130.303 49H128.847L126.447 55.816H126.047L123.695 49H122.239ZM139.156 50.44H139.316V57H140.612V49H138.484L136.116 55.896H135.956L133.604 49H131.428V57H132.708V50.44H132.868L135.124 57H136.884L139.156 50.44ZM147.979 52.104C142.939 52.104 142.139 53.8 142.139 55.016C142.139 56.536 143.323 57.224 144.747 57.224C146.187 57.224 147.371 56.456 147.851 55.48H148.027C148.043 55.928 148.123 56.584 148.283 57H149.691C149.515 56.36 149.355 55.704 149.355 54.12V52.024C149.355 50.12 148.395 48.776 145.739 48.776C143.947 48.776 142.187 49.736 142.187 51.768V51.832H143.563V51.784C143.563 50.76 144.299 49.96 145.787 49.96C147.387 49.96 147.979 50.856 147.979 51.816V52.104ZM144.939 56.072C144.123 56.072 143.531 55.72 143.531 54.952C143.531 54.008 144.459 53.16 147.979 53.096V53.752C147.915 54.856 146.571 56.072 144.939 56.072ZM150.492 57H150.812C152.204 57 152.94 56.12 153.148 53.816L153.484 50.184H156.428V57H157.804V49H152.252L152.204 50.184L151.996 52.872C151.788 55.656 151.308 55.848 150.492 55.848V57ZM165.167 52.104C160.127 52.104 159.327 53.8 159.327 55.016C159.327 56.536 160.511 57.224 161.935 57.224C163.375 57.224 164.559 56.456 165.039 55.48H165.215C165.231 55.928 165.311 56.584 165.471 57H166.879C166.703 56.36 166.543 55.704 166.543 54.12V52.024C166.543 50.12 165.583 48.776 162.927 48.776C161.135 48.776 159.375 49.736 159.375 51.768V51.832H160.751V51.784C160.751 50.76 161.487 49.96 162.975 49.96C164.575 49.96 165.167 50.856 165.167 51.816V52.104ZM162.127 56.072C161.311 56.072 160.719 55.72 160.719 54.952C160.719 54.008 161.647 53.16 165.167 53.096V53.752C165.103 54.856 163.759 56.072 162.127 56.072ZM168.479 55.064V58.968H169.423L169.871 57.544C170.063 56.952 170.303 56.216 170.303 55.864C170.303 55.368 169.967 55.064 169.311 55.064H168.479ZM175.189 49V51.832C175.189 53.576 175.989 54.888 178.261 54.888C179.221 54.888 179.973 54.648 180.469 54.392V57H181.845V49H180.469V53.272C179.861 53.576 179.189 53.72 178.437 53.72C177.205 53.72 176.565 53.16 176.565 51.816V49H175.189ZM183.07 50.184H186.014V57H187.39V50.184H190.334V49H183.07V50.184ZM195.016 48.776C192.584 48.776 190.792 50.344 190.792 52.984C190.792 55.768 192.584 57.224 195.016 57.224C197.448 57.224 199.24 55.768 199.24 52.984C199.24 50.344 197.448 48.776 195.016 48.776ZM195.016 49.96C196.536 49.96 197.864 50.872 197.864 53.016C197.864 55.128 196.536 56.04 195.016 56.04C193.496 56.04 192.168 55.128 192.168 53.016C192.168 50.872 193.496 49.96 195.016 49.96ZM205.179 53.496H209.211V57H210.587V49H209.211V52.312H205.179V49H203.803V57H205.179V53.496ZM219.852 53.432C219.884 53.16 219.916 52.808 219.916 52.52C219.916 50.024 218.156 48.776 216.092 48.776C213.58 48.776 211.948 50.28 211.948 53C211.948 55.848 213.564 57.224 216.044 57.224C217.98 57.224 219.452 56.424 219.82 54.392H218.476C218.316 55.176 217.692 56.04 216.012 56.04C214.572 56.04 213.308 55.192 213.292 53.432H219.852ZM216.06 49.96C217.772 49.96 218.62 51.016 218.62 52.264V52.328H213.292C213.372 50.664 214.556 49.96 216.06 49.96ZM220.461 58.968H221.837V57H227.981V58.968H229.357V55.816H228.237V49H222.637L222.589 50.184L222.445 51.912C222.269 54.088 221.901 55.176 221.485 55.816H220.461V58.968ZM223.693 51.992L223.837 50.184H226.861V55.816H222.829C223.245 54.984 223.549 53.72 223.693 51.992ZM234.344 48.776C231.912 48.776 230.12 50.344 230.12 52.984C230.12 55.768 231.912 57.224 234.344 57.224C236.776 57.224 238.568 55.768 238.568 52.984C238.568 50.344 236.776 48.776 234.344 48.776ZM234.344 49.96C235.864 49.96 237.192 50.872 237.192 53.016C237.192 55.128 235.864 56.04 234.344 56.04C232.824 56.04 231.496 55.128 231.496 53.016C231.496 50.872 232.824 49.96 234.344 49.96ZM243.608 48.776C241.192 48.776 239.464 50.28 239.464 53C239.464 55.848 241.208 57.224 243.656 57.224C245.624 57.224 247.368 56.248 247.368 54.184V54.104H246.024V54.168C246.024 55 245.432 56.04 243.496 56.04C242.104 56.04 240.84 55.048 240.84 53.016C240.84 50.952 242.104 49.96 243.656 49.96C245.048 49.96 246.024 50.664 246.024 51.784V51.832H247.368V51.736C247.368 49.784 245.688 48.776 243.608 48.776ZM247.82 50.184H250.764V57H252.14V50.184H255.084V49H247.82V50.184ZM261.698 52.104C256.658 52.104 255.858 53.8 255.858 55.016C255.858 56.536 257.042 57.224 258.466 57.224C259.906 57.224 261.09 56.456 261.57 55.48H261.746C261.762 55.928 261.842 56.584 262.002 57H263.41C263.234 56.36 263.074 55.704 263.074 54.12V52.024C263.074 50.12 262.114 48.776 259.458 48.776C257.666 48.776 255.906 49.736 255.906 51.768V51.832H257.282V51.784C257.282 50.76 258.018 49.96 259.506 49.96C261.106 49.96 261.698 50.856 261.698 51.816V52.104ZM258.658 56.072C257.842 56.072 257.25 55.72 257.25 54.952C257.25 54.008 258.178 53.16 261.698 53.096V53.752C261.634 54.856 260.29 56.072 258.658 56.072ZM264.054 50.184H266.998V57H268.374V50.184H271.318V49H264.054V50.184ZM276 48.776C273.568 48.776 271.776 50.344 271.776 52.984C271.776 55.768 273.568 57.224 276 57.224C278.432 57.224 280.224 55.768 280.224 52.984C280.224 50.344 278.432 48.776 276 48.776ZM276 49.96C277.52 49.96 278.848 50.872 278.848 53.016C278.848 55.128 277.52 56.04 276 56.04C274.48 56.04 273.152 55.128 273.152 53.016C273.152 50.872 274.48 49.96 276 49.96ZM281.392 49V51.832C281.392 53.576 282.192 54.888 284.464 54.888C285.424 54.888 286.176 54.648 286.672 54.392V57H288.048V49H286.672V53.272C286.064 53.576 285.392 53.72 284.64 53.72C283.408 53.72 282.768 53.16 282.768 51.816V49H281.392ZM291.241 53.496H295.273V57H296.649V49H295.273V52.312H291.241V49H289.865V57H291.241V53.496ZM302.235 48.776C299.803 48.776 298.011 50.344 298.011 52.984C298.011 55.768 299.803 57.224 302.235 57.224C304.667 57.224 306.459 55.768 306.459 52.984C306.459 50.344 304.667 48.776 302.235 48.776ZM302.235 49.96C303.755 49.96 305.083 50.872 305.083 53.016C305.083 55.128 303.755 56.04 302.235 56.04C300.715 56.04 299.387 55.128 299.387 53.016C299.387 50.872 300.715 49.96 302.235 49.96ZM38.64 76H40.176L37.12 71.888L39.872 68H38.432L36.352 71.056H36.208L34.144 68H32.672L35.408 71.936L32.368 76H33.84L36.192 72.832H36.336L38.64 76ZM44.7345 67.776C42.3025 67.776 40.5105 69.344 40.5105 71.984C40.5105 74.768 42.3025 76.224 44.7345 76.224C47.1665 76.224 48.9585 74.768 48.9585 71.984C48.9585 69.344 47.1665 67.776 44.7345 67.776ZM44.7345 68.96C46.2545 68.96 47.5825 69.872 47.5825 72.016C47.5825 74.128 46.2545 75.04 44.7345 75.04C43.2145 75.04 41.8865 74.128 41.8865 72.016C41.8865 69.872 43.2145 68.96 44.7345 68.96ZM51.6303 74.656H51.8223C52.5263 75.792 53.6783 76.224 54.7343 76.224C56.9423 76.224 58.5583 74.768 58.5583 71.984C58.5583 69.312 56.9743 67.776 54.8303 67.776C53.6302 67.776 52.5263 68.208 51.8223 69.44H51.6303L51.5503 68H50.3183V78.88H51.6943V75.84L51.6303 74.656ZM54.4943 75.104C52.9903 75.104 51.6943 74.304 51.6943 72.016C51.6943 69.68 52.9903 68.896 54.4943 68.896C56.0463 68.896 57.1823 69.824 57.1823 72.016C57.1823 74.176 56.0463 75.104 54.4943 75.104ZM63.672 67.776C61.24 67.776 59.448 69.344 59.448 71.984C59.448 74.768 61.24 76.224 63.672 76.224C66.104 76.224 67.896 74.768 67.896 71.984C67.896 69.344 66.104 67.776 63.672 67.776ZM63.672 68.96C65.192 68.96 66.52 69.872 66.52 72.016C66.52 74.128 65.192 75.04 63.672 75.04C62.152 75.04 60.824 74.128 60.824 72.016C60.824 69.872 62.152 68.96 63.672 68.96ZM70.6318 74.816V68H69.2558V76H79.5598V68H78.1838V74.816H75.0798V68H73.7358V74.816H70.6318ZM86.9168 71.104C81.8768 71.104 81.0768 72.8 81.0768 74.016C81.0768 75.536 82.2608 76.224 83.6848 76.224C85.1248 76.224 86.3088 75.456 86.7888 74.48H86.9648C86.9808 74.928 87.0608 75.584 87.2208 76H88.6288C88.4528 75.36 88.2928 74.704 88.2928 73.12V71.024C88.2928 69.12 87.3328 67.776 84.6768 67.776C82.8848 67.776 81.1248 68.736 81.1248 70.768V70.832H82.5008V70.784C82.5008 69.76 83.2368 68.96 84.7248 68.96C86.3248 68.96 86.9168 69.856 86.9168 70.816V71.104ZM83.8768 75.072C83.0608 75.072 82.4688 74.72 82.4688 73.952C82.4688 73.008 83.3968 72.16 86.9168 72.096V72.752C86.8528 73.856 85.5088 75.072 83.8768 75.072ZM92.6485 77.968H94.0245V76H100.169V77.968H101.545V74.816H100.425V68H94.8245L94.7765 69.184L94.6325 70.912C94.4565 73.088 94.0885 74.176 93.6725 74.816H92.6485V77.968ZM95.8805 70.992L96.0245 69.184H99.0485V74.816H95.0165C95.4325 73.984 95.7365 72.72 95.8805 70.992ZM102.336 76H102.656C104.048 76 104.784 75.12 104.992 72.816L105.328 69.184H108.272V76H109.648V68H104.096L104.048 69.184L103.84 71.872C103.632 74.656 103.152 74.848 102.336 74.848V76ZM113.219 72.528C112.595 72.608 112.259 72.912 111.923 73.632L110.819 76H112.419L113.427 73.648C113.667 73.088 114.019 72.88 114.579 72.88H116.851V76H118.227V68H114.419C112.387 68 111.571 68.928 111.571 70.24C111.571 71.312 112.115 72.144 113.219 72.32V72.528ZM112.883 70.432C112.883 69.648 113.331 69.184 114.211 69.184H116.851V71.744H114.259C113.251 71.744 112.883 71.136 112.883 70.432ZM123.064 68V70.832C123.064 72.576 123.864 73.888 126.136 73.888C127.096 73.888 127.848 73.648 128.344 73.392V76H129.72V68H128.344V72.272C127.736 72.576 127.064 72.72 126.312 72.72C125.08 72.72 124.44 72.16 124.44 70.816V68H123.064ZM138.977 72.432C139.009 72.16 139.041 71.808 139.041 71.52C139.041 69.024 137.281 67.776 135.217 67.776C132.705 67.776 131.073 69.28 131.073 72C131.073 74.848 132.689 76.224 135.169 76.224C137.105 76.224 138.577 75.424 138.945 73.392H137.601C137.441 74.176 136.817 75.04 135.137 75.04C133.697 75.04 132.433 74.192 132.417 72.432H138.977ZM135.185 68.96C136.897 68.96 137.745 70.016 137.745 71.264V71.328H132.417C132.497 69.664 133.681 68.96 135.185 68.96ZM146.14 68H140.396V76H141.772V69.184H146.14V68ZM150.813 67.776C148.381 67.776 146.589 69.344 146.589 71.984C146.589 74.768 148.381 76.224 150.813 76.224C153.245 76.224 155.037 74.768 155.037 71.984C155.037 69.344 153.245 67.776 150.813 67.776ZM150.813 68.96C152.333 68.96 153.661 69.872 153.661 72.016C153.661 74.128 152.333 75.04 150.813 75.04C149.293 75.04 147.965 74.128 147.965 72.016C147.965 69.872 149.293 68.96 150.813 68.96ZM156.124 72.112H160.508V70.832H156.124V72.112ZM161.461 69.184H164.405V76H165.781V69.184H168.725V68H161.461V69.184ZM173.406 67.776C170.974 67.776 169.182 69.344 169.182 71.984C169.182 74.768 170.974 76.224 173.406 76.224C175.838 76.224 177.63 74.768 177.63 71.984C177.63 69.344 175.838 67.776 173.406 67.776ZM173.406 68.96C174.926 68.96 176.254 69.872 176.254 72.016C176.254 74.128 174.926 75.04 173.406 75.04C171.886 75.04 170.558 74.128 170.558 72.016C170.558 69.872 171.886 68.96 173.406 68.96ZM179.198 74.064V77.968H180.142L180.59 76.544C180.782 75.952 181.022 75.216 181.022 74.864C181.022 74.368 180.686 74.064 180.03 74.064H179.198ZM191.636 71.104C186.596 71.104 185.796 72.8 185.796 74.016C185.796 75.536 186.98 76.224 188.404 76.224C189.844 76.224 191.028 75.456 191.508 74.48H191.684C191.7 74.928 191.78 75.584 191.94 76H193.348C193.172 75.36 193.012 74.704 193.012 73.12V71.024C193.012 69.12 192.052 67.776 189.396 67.776C187.604 67.776 185.844 68.736 185.844 70.768V70.832H187.22V70.784C187.22 69.76 187.956 68.96 189.444 68.96C191.044 68.96 191.636 69.856 191.636 70.816V71.104ZM188.596 75.072C187.78 75.072 187.188 74.72 187.188 73.952C187.188 73.008 188.116 72.16 191.636 72.096V72.752C191.572 73.856 190.228 75.072 188.596 75.072ZM201.623 67.776C199.207 67.776 197.479 69.28 197.479 72C197.479 74.848 199.223 76.224 201.671 76.224C203.639 76.224 205.383 75.248 205.383 73.184V73.104H204.039V73.168C204.039 74 203.447 75.04 201.511 75.04C200.119 75.04 198.855 74.048 198.855 72.016C198.855 69.952 200.119 68.96 201.671 68.96C203.063 68.96 204.039 69.664 204.039 70.784V70.832H205.383V70.736C205.383 68.784 203.703 67.776 201.623 67.776ZM214.18 72.432C214.212 72.16 214.244 71.808 214.244 71.52C214.244 69.024 212.484 67.776 210.42 67.776C207.908 67.776 206.276 69.28 206.276 72C206.276 74.848 207.892 76.224 210.372 76.224C212.308 76.224 213.78 75.424 214.148 73.392H212.804C212.644 74.176 212.02 75.04 210.34 75.04C208.9 75.04 207.636 74.192 207.62 72.432H214.18ZM210.388 68.96C212.1 68.96 212.948 70.016 212.948 71.264V71.328H207.62C207.7 69.664 208.884 68.96 210.388 68.96ZM220.992 69.504H221.168V76H222.544V68H220.528L217.152 74.736H216.976V68H215.6V76H217.712L220.992 69.504ZM219.056 67.424C220.672 67.424 221.76 66.528 221.76 64.96H220.544C220.544 65.696 220.112 66.336 219.056 66.336C217.968 66.336 217.552 65.696 217.552 64.96H216.336C216.336 66.528 217.424 67.424 219.056 67.424ZM224.173 68V70.832C224.173 72.576 224.973 73.888 227.245 73.888C228.205 73.888 228.957 73.648 229.453 73.392V76H230.829V68H229.453V72.272C228.845 72.576 228.173 72.72 227.421 72.72C226.189 72.72 225.549 72.16 225.549 70.816V68H224.173ZM238.182 71.104C233.142 71.104 232.342 72.8 232.342 74.016C232.342 75.536 233.526 76.224 234.95 76.224C236.39 76.224 237.574 75.456 238.054 74.48H238.23C238.246 74.928 238.326 75.584 238.486 76H239.894C239.718 75.36 239.558 74.704 239.558 73.12V71.024C239.558 69.12 238.598 67.776 235.942 67.776C234.15 67.776 232.39 68.736 232.39 70.768V70.832H233.766V70.784C233.766 69.76 234.502 68.96 235.99 68.96C237.59 68.96 238.182 69.856 238.182 70.816V71.104ZM235.142 75.072C234.326 75.072 233.734 74.72 233.734 73.952C233.734 73.008 234.662 72.16 238.182 72.096V72.752C238.118 73.856 236.774 75.072 235.142 75.072ZM244.967 67.776C242.551 67.776 240.823 69.28 240.823 72C240.823 74.848 242.567 76.224 245.015 76.224C246.983 76.224 248.727 75.248 248.727 73.184V73.104H247.383V73.168C247.383 74 246.791 75.04 244.855 75.04C243.463 75.04 242.199 74.048 242.199 72.016C242.199 69.952 243.463 68.96 245.015 68.96C246.407 68.96 247.383 69.664 247.383 70.784V70.832H248.727V70.736C248.727 68.784 247.047 67.776 244.967 67.776ZM255.031 72.528C254.407 72.608 254.071 72.912 253.735 73.632L252.631 76H254.231L255.239 73.648C255.479 73.088 255.831 72.88 256.391 72.88H258.663V76H260.039V68H256.231C254.199 68 253.383 68.928 253.383 70.24C253.383 71.312 253.927 72.144 255.031 72.32V72.528ZM254.695 70.432C254.695 69.648 255.143 69.184 256.023 69.184H258.663V71.744H256.071C255.063 71.744 254.695 71.136 254.695 70.432ZM264.476 69.184H267.42V76H268.796V69.184H271.74V68H264.476V69.184ZM272.975 76H277.023C278.815 76 279.647 75.168 279.647 73.872C279.647 73.04 279.263 72.24 278.031 72V71.776C278.879 71.632 279.391 70.784 279.391 70.08C279.391 68.864 278.607 68 276.655 68H272.975V76ZM277.055 72.496C277.823 72.496 278.255 72.944 278.255 73.664C278.255 74.352 277.871 74.816 276.943 74.816H274.351V72.496H277.055ZM276.815 69.184C277.647 69.184 278.079 69.584 278.079 70.24C278.079 70.848 277.791 71.36 276.975 71.36H274.351V69.184H276.815ZM288.54 72.432C288.572 72.16 288.604 71.808 288.604 71.52C288.604 69.024 286.844 67.776 284.78 67.776C282.268 67.776 280.636 69.28 280.636 72C280.636 74.848 282.252 76.224 284.732 76.224C286.668 76.224 288.14 75.424 288.508 73.392H287.164C287.004 74.176 286.38 75.04 284.7 75.04C283.26 75.04 281.996 74.192 281.98 72.432H288.54ZM284.748 68.96C286.46 68.96 287.308 70.016 287.308 71.264V71.328H281.98C282.06 69.664 283.244 68.96 284.748 68.96ZM283.772 65.92C283.772 65.376 283.42 64.96 282.78 64.96C282.124 64.96 281.756 65.376 281.756 65.936C281.756 66.56 282.124 66.96 282.78 66.96C283.42 66.96 283.772 66.56 283.772 65.92ZM287.644 65.92C287.644 65.376 287.276 64.96 286.62 64.96C285.98 64.96 285.628 65.376 285.628 65.936C285.628 66.56 285.98 66.96 286.62 66.96C287.276 66.96 287.644 66.56 287.644 65.92ZM291.271 74.656H291.463C292.167 75.792 293.319 76.224 294.375 76.224C296.583 76.224 298.199 74.768 298.199 71.984C298.199 69.312 296.615 67.776 294.471 67.776C293.271 67.776 292.167 68.208 291.463 69.44H291.271L291.191 68H289.959V78.88H291.335V75.84L291.271 74.656ZM294.135 75.104C292.631 75.104 291.335 74.304 291.335 72.016C291.335 69.68 292.631 68.896 294.135 68.896C295.687 68.896 296.823 69.824 296.823 72.016C296.823 74.176 295.687 75.104 294.135 75.104ZM298.742 77.968H300.118V76H306.262V77.968H307.638V74.816H306.518V68H300.918L300.87 69.184L300.726 70.912C300.55 73.088 300.182 74.176 299.766 74.816H298.742V77.968ZM301.974 70.992L302.118 69.184H305.142V74.816H301.11C301.526 73.984 301.83 72.72 301.974 70.992ZM312.625 67.776C310.193 67.776 308.401 69.344 308.401 71.984C308.401 74.768 310.193 76.224 312.625 76.224C315.057 76.224 316.849 74.768 316.849 71.984C316.849 69.344 315.057 67.776 312.625 67.776ZM312.625 68.96C314.145 68.96 315.473 69.872 315.473 72.016C315.473 74.128 314.145 75.04 312.625 75.04C311.105 75.04 309.777 74.128 309.777 72.016C309.777 69.872 311.105 68.96 312.625 68.96ZM32.208 87L34.88 94.44C35.04 94.888 35.216 95 35.616 95H35.968L34.816 97.88H36.224L40.272 87H38.816L36.416 93.816H36.016L33.664 87H32.208ZM41.3964 95H45.4444C47.2364 95 48.0684 94.168 48.0684 92.872C48.0684 92.04 47.6844 91.24 46.4524 91V90.776C47.3004 90.632 47.8124 89.784 47.8124 89.08C47.8124 87.864 47.0284 87 45.0764 87H41.3964V95ZM45.4764 91.496C46.2444 91.496 46.6764 91.944 46.6764 92.664C46.6764 93.352 46.2924 93.816 45.3644 93.816H42.7724V91.496H45.4764ZM45.2364 88.184C46.0684 88.184 46.5004 88.584 46.5004 89.24C46.5004 89.848 46.2124 90.36 45.3964 90.36H42.7724V88.184H45.2364ZM56.9614 91.432C56.9934 91.16 57.0254 90.808 57.0254 90.52C57.0254 88.024 55.2654 86.776 53.2014 86.776C50.6894 86.776 49.0574 88.28 49.0574 91C49.0574 93.848 50.6734 95.224 53.1534 95.224C55.0894 95.224 56.5614 94.424 56.9294 92.392H55.5854C55.4254 93.176 54.8014 94.04 53.1214 94.04C51.6814 94.04 50.4174 93.192 50.4014 91.432H56.9614ZM53.1694 87.96C54.8814 87.96 55.7294 89.016 55.7294 90.264V90.328H50.4014C50.4814 88.664 51.6654 87.96 53.1694 87.96ZM59.6928 93.656H59.8848C60.5888 94.792 61.7408 95.224 62.7968 95.224C65.0048 95.224 66.6208 93.768 66.6208 90.984C66.6208 88.312 65.0368 86.776 62.8928 86.776C61.6927 86.776 60.5888 87.208 59.8848 88.44H59.6928L59.6128 87H58.3808V97.88H59.7568V94.84L59.6928 93.656ZM62.5568 94.104C61.0528 94.104 59.7568 93.304 59.7568 91.016C59.7568 88.68 61.0528 87.896 62.5568 87.896C64.1088 87.896 65.2448 88.824 65.2448 91.016C65.2448 93.176 64.1088 94.104 62.5568 94.104ZM75.4145 91.432C75.4465 91.16 75.4785 90.808 75.4785 90.52C75.4785 88.024 73.7185 86.776 71.6545 86.776C69.1425 86.776 67.5105 88.28 67.5105 91C67.5105 93.848 69.1265 95.224 71.6065 95.224C73.5425 95.224 75.0145 94.424 75.3825 92.392H74.0385C73.8785 93.176 73.2545 94.04 71.5745 94.04C70.1345 94.04 68.8705 93.192 68.8545 91.432H75.4145ZM71.6225 87.96C73.3345 87.96 74.1825 89.016 74.1825 90.264V90.328H68.8545C68.9345 88.664 70.1185 87.96 71.6225 87.96ZM78.2099 91.496H82.2419V95H83.6179V87H82.2419V90.312H78.2099V87H76.8339V95H78.2099V91.496ZM90.9793 90.104C85.9393 90.104 85.1393 91.8 85.1393 93.016C85.1393 94.536 86.3233 95.224 87.7473 95.224C89.1873 95.224 90.3713 94.456 90.8513 93.48H91.0273C91.0433 93.928 91.1233 94.584 91.2833 95H92.6913C92.5153 94.36 92.3553 93.704 92.3553 92.12V90.024C92.3553 88.12 91.3953 86.776 88.7393 86.776C86.9473 86.776 85.1873 87.736 85.1873 89.768V89.832H86.5633V89.784C86.5633 88.76 87.2993 87.96 88.7873 87.96C90.3873 87.96 90.9793 88.856 90.9793 89.816V90.104ZM87.9393 94.072C87.1233 94.072 86.5312 93.72 86.5312 92.952C86.5312 92.008 87.4593 91.16 90.9793 91.096V91.752C90.9153 92.856 89.5713 94.072 87.9393 94.072ZM97.287 95H101.335C103.127 95 103.959 94.168 103.959 92.872C103.959 92.04 103.575 91.24 102.343 91V90.776C103.191 90.632 103.703 89.784 103.703 89.08C103.703 87.864 102.919 87 100.967 87H97.287V95ZM101.367 91.496C102.135 91.496 102.567 91.944 102.567 92.664C102.567 93.352 102.183 93.816 101.255 93.816H98.663V91.496H101.367ZM101.127 88.184C101.959 88.184 102.391 88.584 102.391 89.24C102.391 89.848 102.103 90.36 101.287 90.36H98.663V88.184H101.127ZM112.451 86.776C110.035 86.776 108.307 88.28 108.307 91C108.307 93.848 110.051 95.224 112.499 95.224C114.467 95.224 116.211 94.248 116.211 92.184V92.104H114.867V92.168C114.867 93 114.275 94.04 112.339 94.04C110.947 94.04 109.683 93.048 109.683 91.016C109.683 88.952 110.947 87.96 112.499 87.96C113.891 87.96 114.867 88.664 114.867 89.784V89.832H116.211V89.736C116.211 87.784 114.531 86.776 112.451 86.776ZM125.008 91.432C125.04 91.16 125.072 90.808 125.072 90.52C125.072 88.024 123.312 86.776 121.248 86.776C118.736 86.776 117.104 88.28 117.104 91C117.104 93.848 118.72 95.224 121.2 95.224C123.136 95.224 124.608 94.424 124.976 92.392H123.632C123.472 93.176 122.848 94.04 121.168 94.04C119.728 94.04 118.464 93.192 118.448 91.432H125.008ZM121.216 87.96C122.928 87.96 123.776 89.016 123.776 90.264V90.328H118.448C118.528 88.664 119.712 87.96 121.216 87.96ZM127.26 89C127.388 86.248 128.396 85.256 130.732 85.032L131.756 84.936C132.572 84.856 133.036 84.776 133.756 84.664L133.804 83.368C133.084 83.48 132.716 83.576 131.948 83.656L130.796 83.768C126.78 84.152 125.98 86.456 125.98 90.072C125.98 93.528 127.66 95.224 130.284 95.224C132.732 95.224 134.54 93.816 134.54 91.128C134.54 88.632 133.036 87.144 130.716 87.144C129.228 87.144 128.044 87.8 127.468 89H127.26ZM130.268 88.312C131.996 88.312 133.164 89.16 133.164 91.16C133.164 93.176 131.82 94.04 130.284 94.04C128.78 94.04 127.468 93.032 127.468 91.112C127.468 89.032 128.94 88.312 130.268 88.312ZM143.336 91.432C143.368 91.16 143.4 90.808 143.4 90.52C143.4 88.024 141.64 86.776 139.576 86.776C137.064 86.776 135.432 88.28 135.432 91C135.432 93.848 137.048 95.224 139.528 95.224C141.464 95.224 142.936 94.424 143.304 92.392H141.96C141.8 93.176 141.176 94.04 139.496 94.04C138.056 94.04 136.792 93.192 136.776 91.432H143.336ZM139.544 87.96C141.256 87.96 142.104 89.016 142.104 90.264V90.328H136.776C136.856 88.664 138.04 87.96 139.544 87.96ZM153.351 88.504H153.527V95H154.903V87H152.887L149.511 93.736H149.335V87H147.959V95H150.071L153.351 88.504ZM163.608 86.776C161.192 86.776 159.464 88.28 159.464 91C159.464 93.848 161.208 95.224 163.656 95.224C165.624 95.224 167.368 94.248 167.368 92.184V92.104H166.024V92.168C166.024 93 165.432 94.04 163.496 94.04C162.104 94.04 160.84 93.048 160.84 91.016C160.84 88.952 162.104 87.96 163.656 87.96C165.048 87.96 166.024 88.664 166.024 89.784V89.832H167.368V89.736C167.368 87.784 165.688 86.776 163.608 86.776ZM168.725 95H172.773C174.565 95 175.397 94.168 175.397 92.872C175.397 92.04 175.013 91.24 173.781 91V90.776C174.629 90.632 175.141 89.784 175.141 89.08C175.141 87.864 174.357 87 172.405 87H168.725V95ZM172.805 91.496C173.573 91.496 174.005 91.944 174.005 92.664C174.005 93.352 173.621 93.816 172.693 93.816H170.101V91.496H172.805ZM172.565 88.184C173.397 88.184 173.829 88.584 173.829 89.24C173.829 89.848 173.541 90.36 172.725 90.36H170.101V88.184H172.565ZM180.61 86.776C178.178 86.776 176.386 88.344 176.386 90.984C176.386 93.768 178.178 95.224 180.61 95.224C183.042 95.224 184.834 93.768 184.834 90.984C184.834 88.344 183.042 86.776 180.61 86.776ZM180.61 87.96C182.13 87.96 183.458 88.872 183.458 91.016C183.458 93.128 182.13 94.04 180.61 94.04C179.09 94.04 177.762 93.128 177.762 91.016C177.762 88.872 179.09 87.96 180.61 87.96ZM191.585 88.504H191.761V95H193.137V87H191.121L187.745 93.736H187.569V87H186.193V95H188.305L191.585 88.504ZM200.687 95H202.223L199.167 90.888L201.919 87H200.479L198.399 90.056H198.255L196.191 87H194.719L197.455 90.936L194.415 95H195.887L198.239 91.832H198.383L200.687 95ZM206.709 95H210.757C212.549 95 213.381 94.168 213.381 92.872C213.381 92.04 212.997 91.24 211.765 91V90.776C212.613 90.632 213.125 89.784 213.125 89.08C213.125 87.864 212.341 87 210.389 87H206.709V95ZM210.789 91.496C211.557 91.496 211.989 91.944 211.989 92.664C211.989 93.352 211.605 93.816 210.677 93.816H208.085V91.496H210.789ZM210.549 88.184C211.381 88.184 211.813 88.584 211.813 89.24C211.813 89.848 211.525 90.36 210.709 90.36H208.085V88.184H210.549ZM218.594 86.776C216.162 86.776 214.37 88.344 214.37 90.984C214.37 93.768 216.162 95.224 218.594 95.224C221.026 95.224 222.818 93.768 222.818 90.984C222.818 88.344 221.026 86.776 218.594 86.776ZM218.594 87.96C220.114 87.96 221.442 88.872 221.442 91.016C221.442 93.128 220.114 94.04 218.594 94.04C217.074 94.04 215.746 93.128 215.746 91.016C215.746 88.872 217.074 87.96 218.594 87.96ZM227.49 95.224C229.842 95.224 230.882 94.184 230.882 92.776C230.882 91.912 230.37 91.208 229.17 90.984V90.776C230.178 90.616 230.674 89.928 230.674 89.048C230.674 87.88 229.73 86.776 227.346 86.776C225.474 86.776 223.842 87.8 223.842 89.768V89.832H225.186V89.784C225.186 88.856 225.842 87.96 227.33 87.96C228.802 87.96 229.314 88.472 229.314 89.112C229.314 89.8 228.946 90.392 227.586 90.328L226.562 90.28V91.512L227.602 91.464C229.074 91.4 229.49 91.96 229.49 92.68C229.49 93.288 229.25 94.024 227.538 94.024C226.29 94.024 225.218 93.56 225.218 92.168V92.104H223.874V92.168C223.874 94.392 225.602 95.224 227.49 95.224ZM240.218 88.44H240.378V95H241.674V87H239.546L237.178 93.896H237.018L234.666 87H232.49V95H233.77V88.44H233.93L236.186 95H237.946L240.218 88.44ZM247.266 86.776C244.834 86.776 243.042 88.344 243.042 90.984C243.042 93.768 244.834 95.224 247.266 95.224C249.698 95.224 251.49 93.768 251.49 90.984C251.49 88.344 249.698 86.776 247.266 86.776ZM247.266 87.96C248.786 87.96 250.114 88.872 250.114 91.016C250.114 93.128 248.786 94.04 247.266 94.04C245.746 94.04 244.418 93.128 244.418 91.016C244.418 88.872 245.746 87.96 247.266 87.96ZM256.077 91.56H256.749V95H258.125V91.56H258.797C259.389 91.56 259.725 91.832 260.077 92.488L261.421 95H263.069L261.597 92.472C261.101 91.624 260.829 91.144 260.157 91.048V90.824C260.781 90.728 261.117 90.488 261.549 89.384L262.493 87H261.005L260.093 89.432C259.805 90.184 259.373 90.376 258.797 90.376H258.125V87H256.749V90.376H256.077C255.501 90.376 255.069 90.184 254.781 89.432L253.869 87H252.381L253.325 89.384C253.757 90.488 254.093 90.728 254.717 90.824V91.048C254.045 91.144 253.773 91.624 253.277 92.472L251.805 95H253.453L254.797 92.488C255.149 91.832 255.485 91.56 256.077 91.56ZM265.71 91.496H269.742V95H271.118V87H269.742V90.312H265.71V87H264.334V95H265.71V91.496ZM276.703 86.776C274.271 86.776 272.479 88.344 272.479 90.984C272.479 93.768 274.271 95.224 276.703 95.224C279.135 95.224 280.927 93.768 280.927 90.984C280.927 88.344 279.135 86.776 276.703 86.776ZM276.703 87.96C278.223 87.96 279.551 88.872 279.551 91.016C279.551 93.128 278.223 94.04 276.703 94.04C275.183 94.04 273.855 93.128 273.855 91.016C273.855 88.872 275.183 87.96 276.703 87.96ZM285.967 86.776C283.551 86.776 281.823 88.28 281.823 91C281.823 93.848 283.567 95.224 286.015 95.224C287.983 95.224 289.727 94.248 289.727 92.184V92.104H288.383V92.168C288.383 93 287.791 94.04 285.855 94.04C284.463 94.04 283.199 93.048 283.199 91.016C283.199 88.952 284.463 87.96 286.015 87.96C287.407 87.96 288.383 88.664 288.383 89.784V89.832H289.727V89.736C289.727 87.784 288.047 86.776 285.967 86.776ZM290.179 88.184H293.123V95H294.499V88.184H297.443V87H290.179V88.184ZM299.937 91.528C299.313 91.608 298.977 91.912 298.641 92.632L297.537 95H299.137L300.145 92.648C300.385 92.088 300.737 91.88 301.297 91.88H303.569V95H304.945V87H301.137C299.105 87 298.289 87.928 298.289 89.24C298.289 90.312 298.833 91.144 299.937 91.32V91.528ZM299.601 89.432C299.601 88.648 300.049 88.184 300.929 88.184H303.569V90.744H300.977C299.969 90.744 299.601 90.136 299.601 89.432ZM312.499 95H314.035L310.979 90.888L313.731 87H312.291L310.211 90.056H310.067L308.003 87H306.531L309.267 90.936L306.227 95H307.699L310.051 91.832H310.195L312.499 95ZM317.542 94.024C317.542 93.384 317.11 92.904 316.358 92.904C315.606 92.904 315.174 93.384 315.174 94.04C315.174 94.76 315.606 95.224 316.358 95.224C317.11 95.224 317.542 94.76 317.542 94.024Z" fill="white"/>
</svg>
