<svg width="370" height="100" viewBox="0 0 370 100" fill="none" xmlns="http://www.w3.org/2000/svg">
<rect x="14.4531" width="355.547" height="100" rx="10" fill="#628E75"/>
<path d="M14.9349 88.8889L28.9062 80.9524V100H14.9349H0L14.9349 88.8889Z" fill="#628E75"/>
<path d="M50.04 27.8H41.912V39H43.352V29.08H48.6V39H50.04V27.8ZM55.6251 30.776C53.1931 30.776 51.4011 32.344 51.4011 34.984C51.4011 37.768 53.1931 39.224 55.6251 39.224C58.0571 39.224 59.8491 37.768 59.8491 34.984C59.8491 32.344 58.0571 30.776 55.6251 30.776ZM55.6251 31.96C57.1451 31.96 58.4731 32.872 58.4731 35.016C58.4731 37.128 57.1451 38.04 55.6251 38.04C54.1051 38.04 52.7771 37.128 52.7771 35.016C52.7771 32.872 54.1051 31.96 55.6251 31.96ZM60.3825 39H60.7025C62.0945 39 62.8305 38.12 63.0385 35.816L63.3745 32.184H66.3185V39H67.6945V31H62.1425L62.0945 32.184L61.8865 34.872C61.6785 37.656 61.1985 37.848 60.3825 37.848V39ZM68.8174 31L71.4894 38.44C71.6494 38.888 71.8254 39 72.2254 39H72.5774L71.4254 41.88H72.8334L76.8814 31H75.4254L73.0254 37.816H72.6254L70.2734 31H68.8174ZM77.8138 31V33.832C77.8138 35.576 78.6138 36.888 80.8858 36.888C81.8458 36.888 82.5978 36.648 83.0938 36.392V39H84.4698V31H83.0938V35.272C82.4858 35.576 81.8138 35.72 81.0618 35.72C79.8298 35.72 79.1898 35.16 79.1898 33.816V31H77.8138ZM91.679 32.504H91.855V39H93.231V31H91.215L87.839 37.736H87.663V31H86.287V39H88.399L91.679 32.504ZM94.4606 39H94.7806C96.1726 39 96.9086 38.12 97.1166 35.816L97.4526 32.184H100.397V39H101.773V31H96.2206L96.1726 32.184L95.9646 34.872C95.7566 37.656 95.2766 37.848 94.4606 37.848V39ZM109.136 34.104C104.096 34.104 103.296 35.8 103.296 37.016C103.296 38.536 104.48 39.224 105.904 39.224C107.344 39.224 108.528 38.456 109.008 37.48H109.184C109.2 37.928 109.28 38.584 109.44 39H110.848C110.672 38.36 110.512 37.704 110.512 36.12V34.024C110.512 32.12 109.552 30.776 106.896 30.776C105.104 30.776 103.344 31.736 103.344 33.768V33.832H104.72V33.784C104.72 32.76 105.456 31.96 106.944 31.96C108.544 31.96 109.136 32.856 109.136 33.816V34.104ZM106.096 38.072C105.28 38.072 104.688 37.72 104.688 36.952C104.688 36.008 105.616 35.16 109.136 35.096V35.752C109.072 36.856 107.728 38.072 106.096 38.072ZM119.203 30.776C116.771 30.776 114.979 32.344 114.979 34.984C114.979 37.768 116.771 39.224 119.203 39.224C121.635 39.224 123.427 37.768 123.427 34.984C123.427 32.344 121.635 30.776 119.203 30.776ZM119.203 31.96C120.723 31.96 122.051 32.872 122.051 35.016C122.051 37.128 120.723 38.04 119.203 38.04C117.683 38.04 116.355 37.128 116.355 35.016C116.355 32.872 117.683 31.96 119.203 31.96ZM123.883 32.184H126.827V39H128.203V32.184H131.147V31H123.883V32.184ZM132.381 39H136.429C138.221 39 139.053 38.168 139.053 36.872C139.053 36.04 138.669 35.24 137.437 35V34.776C138.285 34.632 138.797 33.784 138.797 33.08C138.797 31.864 138.013 31 136.061 31H132.381V39ZM136.461 35.496C137.229 35.496 137.661 35.944 137.661 36.664C137.661 37.352 137.277 37.816 136.349 37.816H133.757V35.496H136.461ZM136.221 32.184C137.053 32.184 137.485 32.584 137.485 33.24C137.485 33.848 137.197 34.36 136.381 34.36H133.757V32.184H136.221ZM147.946 35.432C147.978 35.16 148.01 34.808 148.01 34.52C148.01 32.024 146.25 30.776 144.186 30.776C141.674 30.776 140.042 32.28 140.042 35C140.042 37.848 141.658 39.224 144.138 39.224C146.074 39.224 147.546 38.424 147.914 36.392H146.57C146.41 37.176 145.786 38.04 144.106 38.04C142.666 38.04 141.402 37.192 141.386 35.432H147.946ZM144.154 31.96C145.866 31.96 146.714 33.016 146.714 34.264V34.328H141.386C141.466 32.664 142.65 31.96 144.154 31.96ZM148.461 32.184H151.405V39H152.781V32.184H155.725V31H148.461V32.184ZM158.335 31H156.959V39H160.431C162.383 39 163.423 37.928 163.423 36.44C163.423 34.84 162.495 33.88 160.303 33.88H158.335V31ZM164.607 31V39H165.983V31H164.607ZM160.463 35.064C161.423 35.064 162.047 35.48 162.047 36.408C162.047 37.448 161.391 37.816 160.463 37.816H158.335V35.064H160.463ZM172.382 35.496H176.414V39H177.79V31H176.414V34.312H172.382V31H171.006V39H172.382V35.496ZM185.151 34.104C180.111 34.104 179.311 35.8 179.311 37.016C179.311 38.536 180.495 39.224 181.919 39.224C183.359 39.224 184.543 38.456 185.023 37.48H185.199C185.215 37.928 185.295 38.584 185.455 39H186.863C186.687 38.36 186.527 37.704 186.527 36.12V34.024C186.527 32.12 185.567 30.776 182.911 30.776C181.119 30.776 179.359 31.736 179.359 33.768V33.832H180.735V33.784C180.735 32.76 181.471 31.96 182.959 31.96C184.559 31.96 185.151 32.856 185.151 33.816V34.104ZM182.111 38.072C181.295 38.072 180.703 37.72 180.703 36.952C180.703 36.008 181.631 35.16 185.151 35.096V35.752C185.087 36.856 183.743 38.072 182.111 38.072ZM195.139 30.776C192.723 30.776 190.995 32.28 190.995 35C190.995 37.848 192.739 39.224 195.187 39.224C197.155 39.224 198.899 38.248 198.899 36.184V36.104H197.555V36.168C197.555 37 196.963 38.04 195.027 38.04C193.635 38.04 192.371 37.048 192.371 35.016C192.371 32.952 193.635 31.96 195.187 31.96C196.579 31.96 197.555 32.664 197.555 33.784V33.832H198.899V33.736C198.899 31.784 197.219 30.776 195.139 30.776ZM200.256 39H204.304C206.096 39 206.928 38.168 206.928 36.872C206.928 36.04 206.544 35.24 205.312 35V34.776C206.16 34.632 206.672 33.784 206.672 33.08C206.672 31.864 205.888 31 203.936 31H200.256V39ZM204.336 35.496C205.104 35.496 205.536 35.944 205.536 36.664C205.536 37.352 205.152 37.816 204.224 37.816H201.632V35.496H204.336ZM204.096 32.184C204.928 32.184 205.36 32.584 205.36 33.24C205.36 33.848 205.072 34.36 204.256 34.36H201.632V32.184H204.096ZM212.141 30.776C209.709 30.776 207.917 32.344 207.917 34.984C207.917 37.768 209.709 39.224 212.141 39.224C214.573 39.224 216.365 37.768 216.365 34.984C216.365 32.344 214.573 30.776 212.141 30.776ZM212.141 31.96C213.661 31.96 214.989 32.872 214.989 35.016C214.989 37.128 213.661 38.04 212.141 38.04C210.621 38.04 209.293 37.128 209.293 35.016C209.293 32.872 210.621 31.96 212.141 31.96ZM223.117 32.504H223.293V39H224.669V31H222.653L219.277 37.736H219.101V31H217.725V39H219.837L223.117 32.504ZM229.693 39H233.741C235.533 39 236.365 38.168 236.365 36.872C236.365 36.04 235.981 35.24 234.749 35V34.776C235.597 34.632 236.109 33.784 236.109 33.08C236.109 31.864 235.325 31 233.373 31H229.693V39ZM233.773 35.496C234.541 35.496 234.973 35.944 234.973 36.664C234.973 37.352 234.589 37.816 233.661 37.816H231.069V35.496H233.773ZM233.533 32.184C234.365 32.184 234.797 32.584 234.797 33.24C234.797 33.848 234.509 34.36 233.693 34.36H231.069V32.184H233.533ZM241.578 30.776C239.146 30.776 237.354 32.344 237.354 34.984C237.354 37.768 239.146 39.224 241.578 39.224C244.01 39.224 245.802 37.768 245.802 34.984C245.802 32.344 244.01 30.776 241.578 30.776ZM241.578 31.96C243.098 31.96 244.426 32.872 244.426 35.016C244.426 37.128 243.098 38.04 241.578 38.04C240.058 38.04 238.73 37.128 238.73 35.016C238.73 32.872 240.058 31.96 241.578 31.96ZM248.538 32.184H252.826V39H254.202V31H247.162V39H248.538V32.184ZM257.333 37.656H257.525C258.229 38.792 259.381 39.224 260.437 39.224C262.645 39.224 264.261 37.768 264.261 34.984C264.261 32.312 262.677 30.776 260.533 30.776C259.333 30.776 258.229 31.208 257.525 32.44H257.333L257.253 31H256.021V41.88H257.397V38.84L257.333 37.656ZM260.197 38.104C258.693 38.104 257.397 37.304 257.397 35.016C257.397 32.68 258.693 31.896 260.197 31.896C261.749 31.896 262.885 32.824 262.885 35.016C262.885 37.176 261.749 38.104 260.197 38.104ZM269.375 30.776C266.943 30.776 265.151 32.344 265.151 34.984C265.151 37.768 266.943 39.224 269.375 39.224C271.807 39.224 273.599 37.768 273.599 34.984C273.599 32.344 271.807 30.776 269.375 30.776ZM269.375 31.96C270.895 31.96 272.223 32.872 272.223 35.016C272.223 37.128 270.895 38.04 269.375 38.04C267.855 38.04 266.527 37.128 266.527 35.016C266.527 32.872 267.855 31.96 269.375 31.96ZM278.639 30.776C276.223 30.776 274.495 32.28 274.495 35C274.495 37.848 276.239 39.224 278.687 39.224C280.655 39.224 282.399 38.248 282.399 36.184V36.104H281.055V36.168C281.055 37 280.463 38.04 278.527 38.04C277.135 38.04 275.871 37.048 275.871 35.016C275.871 32.952 277.135 31.96 278.687 31.96C280.079 31.96 281.055 32.664 281.055 33.784V33.832H282.399V33.736C282.399 31.784 280.719 30.776 278.639 30.776ZM285.132 31H283.756V39H287.228C289.18 39 290.22 37.928 290.22 36.44C290.22 34.84 289.292 33.88 287.1 33.88H285.132V31ZM291.404 31V39H292.78V31H291.404ZM287.26 35.064C288.22 35.064 288.844 35.48 288.844 36.408C288.844 37.448 288.188 37.816 287.26 37.816H285.132V35.064H287.26ZM303.195 32.504H303.371V39H304.747V31H302.731L299.355 37.736H299.179V31H297.803V39H299.915L303.195 32.504ZM45.672 49.776C43.24 49.776 41.448 51.344 41.448 53.984C41.448 56.768 43.24 58.224 45.672 58.224C48.104 58.224 49.896 56.768 49.896 53.984C49.896 51.344 48.104 49.776 45.672 49.776ZM45.672 50.96C47.192 50.96 48.52 51.872 48.52 54.016C48.52 56.128 47.192 57.04 45.672 57.04C44.152 57.04 42.824 56.128 42.824 54.016C42.824 51.872 44.152 50.96 45.672 50.96ZM50.3513 51.184H53.2953V58H54.6713V51.184H57.6153V50H50.3513V51.184ZM61.3775 54.56C62.0655 54.56 62.4015 54.8 62.7855 55.488L64.1615 58H65.8095L64.3375 55.472C63.8575 54.64 63.5055 54.144 62.8335 54.048V53.824C63.4575 53.728 63.8095 53.456 64.2895 52.384L65.3615 50H63.8735L62.8335 52.432C62.5295 53.136 62.1135 53.344 61.5215 53.376H60.2255V50H58.8495V58H60.2255V54.56H61.3775ZM68.3803 56.656H68.5723C69.2763 57.792 70.4283 58.224 71.4843 58.224C73.6923 58.224 75.3083 56.768 75.3083 53.984C75.3083 51.312 73.7243 49.776 71.5803 49.776C70.3802 49.776 69.2763 50.208 68.5723 51.44H68.3803L68.3003 50H67.0683V60.88H68.4443V57.84L68.3803 56.656ZM71.2443 57.104C69.7403 57.104 68.4443 56.304 68.4443 54.016C68.4443 51.68 69.7403 50.896 71.2443 50.896C72.7963 50.896 73.9323 51.824 73.9323 54.016C73.9323 56.176 72.7963 57.104 71.2443 57.104ZM78.038 50H76.662V58H80.134C82.086 58 83.126 56.928 83.126 55.44C83.126 53.84 82.198 52.88 80.006 52.88H78.038V50ZM84.31 50V58H85.686V50H84.31ZM80.166 54.064C81.126 54.064 81.75 54.48 81.75 55.408C81.75 56.448 81.094 56.816 80.166 56.816H78.038V54.064H80.166ZM86.9138 58H87.2338C88.6258 58 89.3618 57.12 89.5698 54.816L89.9058 51.184H92.8498V58H94.2258V50H88.6738L88.6258 51.184L88.4178 53.872C88.2098 56.656 87.7298 56.848 86.9138 56.848V58ZM101.589 53.104C96.5486 53.104 95.7486 54.8 95.7486 56.016C95.7486 57.536 96.9326 58.224 98.3566 58.224C99.7966 58.224 100.981 57.456 101.461 56.48H101.637C101.653 56.928 101.733 57.584 101.893 58H103.301C103.125 57.36 102.965 56.704 102.965 55.12V53.024C102.965 51.12 102.005 49.776 99.3486 49.776C97.5566 49.776 95.7966 50.736 95.7966 52.768V52.832H97.1726V52.784C97.1726 51.76 97.9086 50.96 99.3966 50.96C100.997 50.96 101.589 51.856 101.589 52.816V53.104ZM98.5486 57.072C97.7326 57.072 97.1406 56.72 97.1406 55.952C97.1406 55.008 98.0686 54.16 101.589 54.096V54.752C101.525 55.856 100.181 57.072 98.5486 57.072ZM109.272 54.496H113.304V58H114.68V50H113.304V53.312H109.272V50H107.896V58H109.272V54.496ZM120.266 49.776C117.834 49.776 116.042 51.344 116.042 53.984C116.042 56.768 117.834 58.224 120.266 58.224C122.698 58.224 124.49 56.768 124.49 53.984C124.49 51.344 122.698 49.776 120.266 49.776ZM120.266 50.96C121.786 50.96 123.114 51.872 123.114 54.016C123.114 56.128 121.786 57.04 120.266 57.04C118.746 57.04 117.418 56.128 117.418 54.016C117.418 51.872 118.746 50.96 120.266 50.96ZM125.85 58H129.898C131.69 58 132.522 57.168 132.522 55.872C132.522 55.04 132.138 54.24 130.906 54V53.776C131.754 53.632 132.266 52.784 132.266 52.08C132.266 50.864 131.482 50 129.53 50H125.85V58ZM129.93 54.496C130.698 54.496 131.13 54.944 131.13 55.664C131.13 56.352 130.746 56.816 129.818 56.816H127.226V54.496H129.93ZM129.69 51.184C130.522 51.184 130.954 51.584 130.954 52.24C130.954 52.848 130.666 53.36 129.85 53.36H127.226V51.184H129.69ZM137.735 49.776C135.303 49.776 133.511 51.344 133.511 53.984C133.511 56.768 135.303 58.224 137.735 58.224C140.167 58.224 141.959 56.768 141.959 53.984C141.959 51.344 140.167 49.776 137.735 49.776ZM137.735 50.96C139.255 50.96 140.583 51.872 140.583 54.016C140.583 56.128 139.255 57.04 137.735 57.04C136.215 57.04 134.887 56.128 134.887 54.016C134.887 51.872 136.215 50.96 137.735 50.96ZM150.758 54.432C150.79 54.16 150.822 53.808 150.822 53.52C150.822 51.024 149.062 49.776 146.998 49.776C144.486 49.776 142.854 51.28 142.854 54C142.854 56.848 144.47 58.224 146.95 58.224C148.886 58.224 150.358 57.424 150.726 55.392H149.382C149.222 56.176 148.598 57.04 146.918 57.04C145.478 57.04 144.214 56.192 144.198 54.432H150.758ZM146.966 50.96C148.678 50.96 149.526 52.016 149.526 53.264V53.328H144.198C144.278 51.664 145.462 50.96 146.966 50.96ZM154.805 59.968H156.181V58H162.325V59.968H163.701V56.816H162.581V50H156.981L156.933 51.184L156.789 52.912C156.613 55.088 156.245 56.176 155.829 56.816H154.805V59.968ZM158.037 52.992L158.181 51.184H161.205V56.816H157.173C157.589 55.984 157.893 54.72 158.037 52.992ZM164.492 58H164.812C166.204 58 166.94 57.12 167.148 54.816L167.484 51.184H170.428V58H171.804V50H166.252L166.204 51.184L165.996 53.872C165.788 56.656 165.308 56.848 164.492 56.848V58ZM175.375 54.528C174.751 54.608 174.415 54.912 174.079 55.632L172.975 58H174.575L175.583 55.648C175.823 55.088 176.175 54.88 176.735 54.88H179.007V58H180.383V50H176.575C174.543 50 173.727 50.928 173.727 52.24C173.727 53.312 174.271 54.144 175.375 54.32V54.528ZM175.039 52.432C175.039 51.648 175.487 51.184 176.367 51.184H179.007V53.744H176.415C175.407 53.744 175.039 53.136 175.039 52.432ZM189.092 49.776C186.676 49.776 184.948 51.28 184.948 54C184.948 56.848 186.692 58.224 189.14 58.224C191.108 58.224 192.852 57.248 192.852 55.184V55.104H191.508V55.168C191.508 56 190.916 57.04 188.98 57.04C187.588 57.04 186.324 56.048 186.324 54.016C186.324 51.952 187.588 50.96 189.14 50.96C190.532 50.96 191.508 51.664 191.508 52.784V52.832H192.852V52.736C192.852 50.784 191.172 49.776 189.092 49.776ZM201.649 54.432C201.681 54.16 201.713 53.808 201.713 53.52C201.713 51.024 199.953 49.776 197.889 49.776C195.377 49.776 193.745 51.28 193.745 54C193.745 56.848 195.361 58.224 197.841 58.224C199.777 58.224 201.249 57.424 201.617 55.392H200.273C200.113 56.176 199.489 57.04 197.809 57.04C196.369 57.04 195.105 56.192 195.089 54.432H201.649ZM197.857 50.96C199.569 50.96 200.417 52.016 200.417 53.264V53.328H195.089C195.169 51.664 196.353 50.96 197.857 50.96ZM203.9 52C204.028 49.248 205.036 48.256 207.372 48.032L208.396 47.936C209.212 47.856 209.676 47.776 210.396 47.664L210.444 46.368C209.724 46.48 209.356 46.576 208.588 46.656L207.436 46.768C203.42 47.152 202.62 49.456 202.62 53.072C202.62 56.528 204.3 58.224 206.924 58.224C209.372 58.224 211.18 56.816 211.18 54.128C211.18 51.632 209.676 50.144 207.356 50.144C205.868 50.144 204.684 50.8 204.108 52H203.9ZM206.908 51.312C208.636 51.312 209.804 52.16 209.804 54.16C209.804 56.176 208.46 57.04 206.924 57.04C205.42 57.04 204.108 56.032 204.108 54.112C204.108 52.032 205.58 51.312 206.908 51.312ZM213.969 54.528C213.345 54.608 213.009 54.912 212.673 55.632L211.569 58H213.169L214.177 55.648C214.417 55.088 214.769 54.88 215.329 54.88H217.601V58H218.977V50H215.169C213.137 50 212.321 50.928 212.321 52.24C212.321 53.312 212.865 54.144 213.969 54.32V54.528ZM213.633 52.432C213.633 51.648 214.081 51.184 214.961 51.184H217.601V53.744H215.009C214.001 53.744 213.633 53.136 213.633 52.432ZM224.006 58H228.054C229.846 58 230.678 57.168 230.678 55.872C230.678 55.04 230.294 54.24 229.062 54V53.776C229.91 53.632 230.422 52.784 230.422 52.08C230.422 50.864 229.638 50 227.686 50H224.006V58ZM228.086 54.496C228.854 54.496 229.286 54.944 229.286 55.664C229.286 56.352 228.902 56.816 227.974 56.816H225.382V54.496H228.086ZM227.846 51.184C228.678 51.184 229.11 51.584 229.11 52.24C229.11 52.848 228.822 53.36 228.006 53.36H225.382V51.184H227.846ZM236.866 51.184H241.154V58H242.53V50H235.49V58H236.866V51.184ZM248.11 49.776C245.678 49.776 243.886 51.344 243.886 53.984C243.886 56.768 245.678 58.224 248.11 58.224C250.542 58.224 252.334 56.768 252.334 53.984C252.334 51.344 250.542 49.776 248.11 49.776ZM248.11 50.96C249.63 50.96 250.958 51.872 250.958 54.016C250.958 56.128 249.63 57.04 248.11 57.04C246.59 57.04 245.262 56.128 245.262 54.016C245.262 51.872 246.59 50.96 248.11 50.96ZM252.883 59.968H254.259V58H260.403V59.968H261.779V56.816H260.659V50H255.059L255.011 51.184L254.867 52.912C254.691 55.088 254.323 56.176 253.907 56.816H252.883V59.968ZM256.115 52.992L256.259 51.184H259.283V56.816H255.251C255.667 55.984 255.971 54.72 256.115 52.992ZM268.89 58H270.426L267.37 53.888L270.122 50H268.682L266.602 53.056H266.458L264.394 50H262.922L265.658 53.936L262.618 58H264.09L266.442 54.832H266.586L268.89 58ZM274.985 49.776C272.553 49.776 270.761 51.344 270.761 53.984C270.761 56.768 272.553 58.224 274.985 58.224C277.417 58.224 279.209 56.768 279.209 53.984C279.209 51.344 277.417 49.776 274.985 49.776ZM274.985 50.96C276.505 50.96 277.833 51.872 277.833 54.016C277.833 56.128 276.505 57.04 274.985 57.04C273.465 57.04 272.137 56.128 272.137 54.016C272.137 51.872 273.465 50.96 274.985 50.96ZM279.758 59.968H281.134V58H287.278V59.968H288.654V56.816H287.534V50H281.934L281.886 51.184L281.742 52.912C281.566 55.088 281.198 56.176 280.782 56.816H279.758V59.968ZM282.99 52.992L283.134 51.184H286.158V56.816H282.126C282.542 55.984 282.846 54.72 282.99 52.992ZM297.321 54.432C297.353 54.16 297.385 53.808 297.385 53.52C297.385 51.024 295.625 49.776 293.561 49.776C291.049 49.776 289.417 51.28 289.417 54C289.417 56.848 291.033 58.224 293.513 58.224C295.449 58.224 296.921 57.424 297.289 55.392H295.945C295.785 56.176 295.161 57.04 293.481 57.04C292.041 57.04 290.777 56.192 290.761 54.432H297.321ZM293.529 50.96C295.241 50.96 296.089 52.016 296.089 53.264V53.328H290.761C290.841 51.664 292.025 50.96 293.529 50.96ZM41.912 77H45.96C47.752 77 48.584 76.168 48.584 74.872C48.584 74.04 48.2 73.24 46.968 73V72.776C47.816 72.632 48.328 71.784 48.328 71.08C48.328 69.864 47.544 69 45.592 69H41.912V77ZM45.992 73.496C46.76 73.496 47.192 73.944 47.192 74.664C47.192 75.352 46.808 75.816 45.88 75.816H43.288V73.496H45.992ZM45.752 70.184C46.584 70.184 47.016 70.584 47.016 71.24C47.016 71.848 46.728 72.36 45.912 72.36H43.288V70.184H45.752ZM53.797 68.776C51.365 68.776 49.573 70.344 49.573 72.984C49.573 75.768 51.365 77.224 53.797 77.224C56.229 77.224 58.021 75.768 58.021 72.984C58.021 70.344 56.229 68.776 53.797 68.776ZM53.797 69.96C55.317 69.96 56.645 70.872 56.645 73.016C56.645 75.128 55.317 76.04 53.797 76.04C52.277 76.04 50.949 75.128 50.949 73.016C50.949 70.872 52.277 69.96 53.797 69.96ZM63.0608 68.776C60.6448 68.776 58.9168 70.28 58.9168 73C58.9168 75.848 60.6608 77.224 63.1088 77.224C65.0768 77.224 66.8208 76.248 66.8208 74.184V74.104H65.4768V74.168C65.4768 75 64.8848 76.04 62.9488 76.04C61.5568 76.04 60.2928 75.048 60.2928 73.016C60.2928 70.952 61.5568 69.96 63.1088 69.96C64.5008 69.96 65.4768 70.664 65.4768 71.784V71.832H66.8208V71.736C66.8208 69.784 65.1408 68.776 63.0608 68.776ZM69.5536 70.184H73.8416V77H75.2176V69H68.1776V77H69.5536V70.184ZM82.429 70.504H82.605V77H83.981V69H81.965L78.589 75.736H78.413V69H77.037V77H79.149L82.429 70.504ZM85.2106 70.184H88.1546V77H89.5306V70.184H92.4746V69H85.2106V70.184ZM99.0886 72.104C94.0486 72.104 93.2486 73.8 93.2486 75.016C93.2486 76.536 94.4326 77.224 95.8566 77.224C97.2966 77.224 98.4806 76.456 98.9606 75.48H99.1366C99.1526 75.928 99.2326 76.584 99.3926 77H100.801C100.625 76.36 100.465 75.704 100.465 74.12V72.024C100.465 70.12 99.5046 68.776 96.8486 68.776C95.0566 68.776 93.2966 69.736 93.2966 71.768V71.832H94.6726V71.784C94.6726 70.76 95.4086 69.96 96.8966 69.96C98.4966 69.96 99.0886 70.856 99.0886 71.816V72.104ZM96.0486 76.072C95.2326 76.072 94.6406 75.72 94.6406 74.952C94.6406 74.008 95.5686 73.16 99.0886 73.096V73.752C99.0246 74.856 97.6806 76.072 96.0486 76.072ZM103.569 73.496H107.601V77H108.977V69H107.601V72.312H103.569V69H102.193V77H103.569V73.496ZM116.195 70.504H116.371V77H117.747V69H115.731L112.355 75.736H112.179V69H110.803V77H112.915L116.195 70.504ZM121.312 73.528C120.688 73.608 120.352 73.912 120.016 74.632L118.912 77H120.512L121.52 74.648C121.76 74.088 122.112 73.88 122.672 73.88H124.944V77H126.32V69H122.512C120.48 69 119.664 69.928 119.664 71.24C119.664 72.312 120.208 73.144 121.312 73.32V73.528ZM120.976 71.432C120.976 70.648 121.424 70.184 122.304 70.184H124.944V72.744H122.352C121.344 72.744 120.976 72.136 120.976 71.432ZM135.03 68.776C132.614 68.776 130.886 70.28 130.886 73C130.886 75.848 132.63 77.224 135.078 77.224C137.046 77.224 138.79 76.248 138.79 74.184V74.104H137.446V74.168C137.446 75 136.854 76.04 134.918 76.04C133.526 76.04 132.262 75.048 132.262 73.016C132.262 70.952 133.526 69.96 135.078 69.96C136.47 69.96 137.446 70.664 137.446 71.784V71.832H138.79V71.736C138.79 69.784 137.11 68.776 135.03 68.776ZM140.146 77H144.194C145.986 77 146.818 76.168 146.818 74.872C146.818 74.04 146.434 73.24 145.202 73V72.776C146.05 72.632 146.562 71.784 146.562 71.08C146.562 69.864 145.778 69 143.826 69H140.146V77ZM144.226 73.496C144.994 73.496 145.426 73.944 145.426 74.664C145.426 75.352 145.042 75.816 144.114 75.816H141.522V73.496H144.226ZM143.986 70.184C144.818 70.184 145.25 70.584 145.25 71.24C145.25 71.848 144.962 72.36 144.146 72.36H141.522V70.184H143.986ZM152.031 68.776C149.599 68.776 147.807 70.344 147.807 72.984C147.807 75.768 149.599 77.224 152.031 77.224C154.463 77.224 156.255 75.768 156.255 72.984C156.255 70.344 154.463 68.776 152.031 68.776ZM152.031 69.96C153.551 69.96 154.879 70.872 154.879 73.016C154.879 75.128 153.551 76.04 152.031 76.04C150.511 76.04 149.183 75.128 149.183 73.016C149.183 70.872 150.511 69.96 152.031 69.96ZM165.055 73.432C165.087 73.16 165.119 72.808 165.119 72.52C165.119 70.024 163.359 68.776 161.295 68.776C158.783 68.776 157.151 70.28 157.151 73C157.151 75.848 158.767 77.224 161.247 77.224C163.183 77.224 164.655 76.424 165.023 74.392H163.679C163.519 75.176 162.895 76.04 161.215 76.04C159.775 76.04 158.511 75.192 158.495 73.432H165.055ZM161.263 69.96C162.975 69.96 163.823 71.016 163.823 72.264V72.328H158.495C158.575 70.664 159.759 69.96 161.263 69.96ZM171.867 70.504H172.043V77H173.419V69H171.403L168.027 75.736H167.851V69H166.475V77H168.587L171.867 70.504ZM169.931 68.424C171.547 68.424 172.635 67.528 172.635 65.96H171.419C171.419 66.696 170.987 67.336 169.931 67.336C168.843 67.336 168.427 66.696 168.427 65.96H167.211C167.211 67.528 168.299 68.424 169.931 68.424ZM177.867 78.968H179.243V77H185.387V78.968H186.763V75.816H185.643V69H180.043L179.995 70.184L179.851 71.912C179.675 74.088 179.307 75.176 178.891 75.816H177.867V78.968ZM181.099 71.992L181.243 70.184H184.267V75.816H180.235C180.651 74.984 180.955 73.72 181.099 71.992ZM191.75 68.776C189.318 68.776 187.526 70.344 187.526 72.984C187.526 75.768 189.318 77.224 191.75 77.224C194.182 77.224 195.974 75.768 195.974 72.984C195.974 70.344 194.182 68.776 191.75 68.776ZM191.75 69.96C193.27 69.96 194.598 70.872 194.598 73.016C194.598 75.128 193.27 76.04 191.75 76.04C190.23 76.04 188.902 75.128 188.902 73.016C188.902 70.872 190.23 69.96 191.75 69.96ZM197.142 69V71.832C197.142 73.576 197.942 74.888 200.214 74.888C201.174 74.888 201.926 74.648 202.422 74.392V77H203.798V69H202.422V73.272C201.814 73.576 201.142 73.72 200.39 73.72C199.158 73.72 198.518 73.16 198.518 71.816V69H197.142ZM211.007 70.504H211.183V77H212.559V69H210.543L207.167 75.736H206.991V69H205.615V77H207.727L211.007 70.504ZM216.605 76.024C216.605 75.384 216.173 74.904 215.421 74.904C214.669 74.904 214.237 75.384 214.237 76.04C214.237 76.76 214.669 77.224 215.421 77.224C216.173 77.224 216.605 76.76 216.605 76.024Z" fill="white"/>
</svg>
